<?xml version="1.0" standalone="no"?>
<!DOCTYPE svg PUBLIC "-//W3C//DTD SVG 1.1//EN" "http://www.w3.org/Graphics/SVG/1.1/DTD/svg11.dtd" >
<svg xmlns="http://www.w3.org/2000/svg" xmlns:xlink="http://www.w3.org/1999/xlink" version="1.1">
<metadata>
Created by FontForge 20170731 at Fri Feb  9 08:06:41 2018
 By Aleksey,,,
</metadata>
<defs>
<font id="MontaukLight" horiz-adv-x="423" >
  <font-face 
    font-family="Montauk Light"
    font-weight="400"
    font-stretch="normal"
    units-per-em="1000"
    panose-1="0 0 0 0 0 0 0 0 0 0"
    ascent="800"
    descent="-200"
    x-height="391"
    cap-height="509"
    bbox="18.7458 -203.615 1039 808"
    underline-thickness="50"
    underline-position="-200"
    unicode-range="U+000A-20AC"
  />
<missing-glyph horiz-adv-x="440" 
 />
    <glyph glyph-name=".notdef" horiz-adv-x="440" 
 />
    <glyph glyph-name=".notdef" horiz-adv-x="440" 
 />
    <glyph glyph-name=".null" horiz-adv-x="0" 
 />
    <glyph glyph-name="nonmarkingreturn" horiz-adv-x="333" 
 />
    <glyph glyph-name="LF" unicode="&#xa;" horiz-adv-x="40" 
 />
    <glyph glyph-name="controlCR" unicode="&#xd;" horiz-adv-x="40" 
 />
    <glyph glyph-name="space" unicode=" " horiz-adv-x="250" 
 />
    <glyph glyph-name="exclam" unicode="!" horiz-adv-x="175" 
d="M81 174q-10 0 -16.5 9.5t-6.5 19.5v475q0 5 1.5 10t4.5 9.5t7.5 7t9.5 2.5h13q7 0 12 -4.5t8 -11t3 -13.5v-475q0 -10 -6.5 -19.5t-16.5 -9.5h-13zM87.5 95q19.5 0 33.5 -14t14 -33.5t-14 -33.5t-33.5 -14t-33.5 14t-14 33.5t14 33.5t33.5 14z" />
    <glyph glyph-name="quotedbl" unicode="&#x22;" horiz-adv-x="324" 
d="M239 699q30 0 47.5 -23.5t17.5 -55.5q0 -40 -18.5 -77.5t-49.5 -65.5q-15 -13 -30 -1l-4 4q-8 6 -8 16.5t7 17.5q30 28 41 61l5 14h-14q-22 1 -36 16t-14 38q0 22 16.5 39t39.5 17zM75 699q31 0 48.5 -23.5t17.5 -55.5q0 -40 -19 -78t-51 -65q-14 -13 -29 -1l-4 4
q-8 6 -8.5 16.5t7.5 17.5q30 28 42 61l5 14h-15q-22 1 -35.5 16t-13.5 38t16 39.5t39 16.5z" />
    <glyph glyph-name="numbersign" unicode="#" horiz-adv-x="529" 
d="M485 355q6 0 11.5 -3t9 -8.5t3.5 -11.5v-11q0 -9 -7 -16t-17 -7h-67l-33 -141h70q6 0 11.5 -3t8.5 -8.5t3 -11.5v-10q0 -10 -7 -16.5t-16 -6.5h-83l-19 -83q-3 -10 -12 -15t-19 -2l-11 2q-10 3 -16 11t-4 18l16 69h-134l-15 -65q-2 -10 -11.5 -15t-19.5 -2l-10 2
q-10 2 -16 10.5t-4 18.5l12 51h-66q-9 0 -16 6.5t-7 16.5v10q0 9 7 16t16 7h79l33 141h-81q-10 0 -17 6.5t-7 16.5v11q0 9 7 16t17 7h94l23 100q1 5 4.5 9t7.5 6t9 3t10 0l10 -3q10 -2 16 -10.5t4 -18.5l-20 -86h134l19 83q2 10 11 14.5t19 2.5l12 -3q10 -2 16 -10.5
t4 -18.5l-16 -68h54zM320 157l32 141h-133l-33 -141h134z" />
    <glyph glyph-name="dollar" unicode="$" horiz-adv-x="415" 
d="M247 372q26 -8 45 -15t39.5 -19t33.5 -26.5t21.5 -36.5t8.5 -49q0 -63 -40.5 -99.5t-106.5 -45.5l-9 -1v-57q0 -6 -3 -11.5t-8.5 -8.5t-11.5 -3h-13q-9 0 -16 6.5t-7 16.5v57l-9 1q-90 11 -147 67q-9 9 -1 19l17 23q4 5 10.5 5.5t11.5 -4.5q45 -42 105 -55l13 -3v192
l-8 2q-32 9 -53 18t-43.5 24t-33.5 38.5t-11 54.5q0 57 40 92.5t100 44.5l9 1v101q0 10 7 16.5t16 6.5h13q9 0 16 -6.5t7 -16.5v-102l9 -1q75 -10 125 -56q10 -10 1 -20l-17 -22q-4 -4 -10 -4.5t-11 3.5q-34 31 -84 43l-13 3v-171zM180 391v157l-13 -3q-33 -8 -53.5 -28
t-20.5 -52q0 -27 20 -43t53 -27zM252 135q36 8 58.5 29.5t22.5 56.5q0 32 -22 51t-58 31l-14 5v-175z" />
    <glyph glyph-name="percent" unicode="%" horiz-adv-x="1059" 
d="M659 714.5q7 -9.5 3 -20.5l-227 -678q-5 -16 -22 -16h-14q-12 0 -19 9.5t-3 20.5l227 679q5 15 22 15h14q12 0 19 -9.5zM1024 371.5q15 -36.5 15 -78.5t-15 -79t-41.5 -64.5t-62.5 -43.5t-78 -16t-78 16q-35 16 -61.5 43.5t-41.5 64.5t-15 79t15 78.5t41.5 64.5t61.5 44
q36 16 78 16t78 -16t62.5 -44t41.5 -64.5zM971.5 236.5q10.5 26.5 10.5 56.5t-10.5 56.5t-29.5 46t-44 31.5t-55 12t-55.5 -12t-44 -31.5t-29 -46t-10.5 -56.5t10.5 -56.5t29 -46t44 -31.5t55.5 -12t55 12t44 31.5t29.5 46zM413 484q0 -42 -15 -79t-41.5 -65t-62.5 -43
q-36 -16 -78 -16t-78 16q-36 15 -62 43t-41 65t-15 78.5t15 78.5t41 65t62 44q36 15 78 15t78 -15.5t62.5 -43.5t41.5 -64.5t15 -78.5zM345 427q11 27 11 56.5t-11 56.5t-29.5 46.5t-43.5 31.5q-25 11 -55 11t-55.5 -11.5t-44 -31t-29 -46.5t-10.5 -56.5t10.5 -56.5
t29 -46.5t44 -31t55.5 -11.5t55 11q25 12 43.5 31.5t29.5 46.5z" />
    <glyph glyph-name="ampersand" unicode="&#x26;" horiz-adv-x="474" 
d="M382 103q28 -30 67 -66q8 -8 4 -17.5t-15 -9.5h-33q-6 0 -11 4q-21 18 -47 45l-7 7l-8 -7q-63 -59 -146 -59q-73 0 -119.5 38.5t-46.5 109.5q0 105 105 159l12 7l-8 10q-45 54 -53 100q-3 22 0 41q6 33 29 56.5t53.5 32t62 6.5t59 -21t39.5 -50q22 -58 -18 -115
q-24 -34 -77 -68l-10 -7l7 -9q81 -102 110 -134l10 -11l7 13q27 41 46 94q2 7 8 9.5t13 -0.5l19 -8q6 -3 8.5 -9t-0.5 -12q-32 -73 -61 -115l-5 -8zM135 429q6 -36 42 -82l6 -8l8 6q26 17 42 30.5t29.5 37.5t9.5 49q-7 43 -44.5 53t-68.5 -16t-24 -70zM298 94l8 7l-8 8
q-81 86 -129 152l-6 8l-9 -5q-72 -47 -72 -112q0 -47 31 -76t78 -29q56 0 107 47z" />
    <glyph glyph-name="quotesingle" unicode="'" horiz-adv-x="161" 
d="M75 699q31 0 48.5 -23.5t17.5 -55.5q0 -40 -19 -78t-51 -65q-14 -13 -29 -1l-4 4q-8 6 -8.5 16.5t7.5 17.5q30 28 42 61l5 14h-15q-22 1 -35.5 16t-13.5 38t16 39.5t39 16.5z" />
    <glyph glyph-name="parenleft" unicode="(" horiz-adv-x="179" 
d="M82 340q0 -85 18 -157.5t57 -152.5q6 -11 -4 -18l-11 -9q-5 -4 -11.5 -3t-9.5 7q-101 147 -101 333q0 184 101 333q3 5 9.5 6t11.5 -3l11 -8q10 -7 4 -19q-39 -80 -57 -152.5t-18 -156.5z" />
    <glyph glyph-name="parenright" unicode=")" horiz-adv-x="180" 
d="M48.5 679q6.5 -1 9.5 -6q102 -148 102 -333q0 -186 -101 -333q-4 -6 -10.5 -7t-11.5 3l-11 9q-10 7 -4 18q39 79 57.5 152t18.5 158q0 57 -8.5 109t-25 99.5t-42.5 100.5q-6 12 4 19l11 8q5 4 11.5 3z" />
    <glyph glyph-name="asterisk" unicode="*" horiz-adv-x="411" 
d="M380 647q6 0 8.5 -8.5t2.5 -14.5v-12q0 -7 -2.5 -15t-8.5 -8h-117l68 -96q3 -4 -2 -11t-10 -11l-11 -7q-5 -4 -12.5 -6t-12.5 2l-77 108l-80 -108q-5 -4 -12.5 -1.5t-12.5 5.5l-10 8q-3 2 -6.5 6t-5.5 9t0 7l69 95h-117q-5 0 -8 8t-3 15v12q0 6 3 14.5t8 8.5h119l-69 97
q-3 4 2 11.5t10 11.5l10 7q5 4 12.5 6t12.5 -2l79 -110l79 108q5 3 12.5 1t12.5 -6l10 -7q3 -2 6.5 -6t5.5 -9t0 -8l-69 -94h116z" />
    <glyph glyph-name="plus" unicode="+" horiz-adv-x="347" 
d="M304 207q6 0 11.5 -3t8.5 -8.5t3 -11.5v-9q0 -10 -6.5 -16.5t-16.5 -6.5h-100v-129q0 -6 -3 -11.5t-8.5 -8.5t-11.5 -3h-15q-9 0 -16 6.5t-7 16.5v129h-100q-6 0 -11.5 3t-8.5 8t-3 12v9q0 10 6.5 16.5t16.5 6.5h100v131q0 9 7 16t16 7h15q5 0 9 -2t7 -5t5 -7.5t2 -8.5
v-131h100z" />
    <glyph glyph-name="comma" unicode="," horiz-adv-x="161" 
d="M75 114q31 0 48.5 -23.5t17.5 -55.5q0 -40 -19 -78t-51 -65q-14 -13 -29 -1l-4 4q-8 6 -8.5 16.5t7.5 17.5q30 28 42 61l5 14h-15q-22 1 -35.5 16t-13.5 38t16 39.5t39 16.5z" />
    <glyph glyph-name="hyphen" unicode="-" horiz-adv-x="412" 
d="M380 259q6 0 9 -8.5t3 -14.5v-13q0 -6 -3 -14.5t-9 -8.5h-349q-5 0 -8 8.5t-3 14.5v13q0 6 3 14.5t8 8.5h349z" />
    <glyph glyph-name="period" unicode="." horiz-adv-x="155" 
d="M77.5 115q23.5 0 40.5 -17t17 -40.5t-17 -40.5t-40.5 -17t-40.5 17t-17 40.5t17 40.5t40.5 17z" />
    <glyph glyph-name="slash" unicode="/" horiz-adv-x="330" 
d="M44 0q-12 0 -19.5 10t-3.5 22l228 678q5 17 23 17h14q12 0 19.5 -10t3.5 -22l-227 -679q-6 -16 -23 -16h-15z" />
    <glyph glyph-name="zero" unicode="0" horiz-adv-x="542" 
d="M271 523q112 0 181.5 -75t69.5 -187.5t-69.5 -187t-181.5 -74.5t-181.5 74.5t-69.5 187.5t69.5 187.5t181.5 74.5zM271 52q44 0 80 16.5t59.5 45t36.5 66.5t13 81q0 89 -51 149t-138 60t-138 -60t-51 -149t51 -149t138 -60z" />
    <glyph glyph-name="one" unicode="1" horiz-adv-x="176" 
d="M142 507q6 0 10 -4t4 -10v-474q0 -5 -4 -9.5t-10 -4.5h-31q-6 0 -10 4.5t-4 9.5v411l-37 -39q-4 -4 -10 -4t-11 4l-15 16q-10 10 0 19l75 77q4 4 10 4h33z" />
    <glyph glyph-name="two" unicode="2" horiz-adv-x="383" 
d="M349 58q6 0 10 -4.5t4 -10.5v-24q0 -5 -4 -9.5t-10 -4.5h-315q-4 0 -7 2t-5 5.5t-2 6.5v27q0 7 5 11q15 11 44.5 33t47 35.5t43 35t43.5 39t38 40t35 45.5q26 40 28.5 76t-16 58.5t-48 34.5t-67.5 9t-73 -21q-13 -7 -19 6l-9 19q-6 12 5 19q36 20 76.5 27t76 -1t67 -26.5
t47.5 -47.5t18 -66t-21 -82q-19 -38 -57.5 -80.5t-69.5 -69t-77 -63.5l-25 -19h237z" />
    <glyph glyph-name="three" unicode="3" horiz-adv-x="391" 
d="M295 255q43 -15 63 -56q15 -31 12.5 -66t-21.5 -64q-47 -73 -156 -73q-50 0 -95.5 18t-74.5 54q-8 9 1 18q1 1 5 6t6.5 7.5t6.5 5t8 2.5q6 0 10 -4q51 -55 131 -55q33 0 59 9.5t44 32t18 55.5q0 17 -4.5 30.5t-12 22.5t-18 16t-23 11t-26 7t-27 3.5t-27.5 1t-26 0.5
q-6 0 -10.5 4t-4.5 10v24q0 6 4.5 10t10.5 4h17.5h18.5q40 0 70 13q22 9 35 25t15.5 33.5t-3.5 35t-20 32t-36 24t-49 9.5q-52 2 -93 -19q-13 -7 -19 6l-9 19q-6 12 5 19q34 19 78.5 25.5t86.5 -1t74 -35.5t40 -72q6 -40 -12 -74.5t-53 -53.5l-22 -11z" />
    <glyph glyph-name="four" unicode="4" horiz-adv-x="411" 
d="M376 185q6 0 10.5 -4t4.5 -10v-23q0 -6 -4.5 -10.5t-9.5 -4.5h-58v-114q0 -5 -4 -9.5t-10 -4.5h-30q-6 0 -10.5 4.5t-4.5 9.5v114h-226q-4 0 -7 2t-5 5.5t-2 7.5v31q0 4 2 8l210 314q4 6 12 6h23h3h1h2h2h30q6 0 10 -4t4 -10v-308h57zM260 185v272l-183 -272h183z" />
    <glyph glyph-name="five" unicode="5" horiz-adv-x="353" 
d="M151 329q39 0 72 -11.5t54 -30.5t36 -44t18 -52t0 -54.5t-18 -52t-36 -44t-54 -30.5t-72 -11q-57 0 -104 22l-10 5q-6 4 -11 7q-10 7 -4 18q0 2 2 6l3.5 7t3.5 6t4.5 5.5t4.5 3.5q6 1 11 -2q35 -21 83.5 -24.5t85.5 15.5q33 18 45.5 53.5t4 69.5t-40.5 59.5t-79 25.5
q-58 0 -103 -30q-7 3 -7 12v235q0 6 4.5 10t9.5 4h214q6 0 10 -4t4 -10v-24q0 -6 -4 -10t-10 -4h-169v-131l13 2q19 3 39 3z" />
    <glyph glyph-name="six" unicode="6" horiz-adv-x="383" 
d="M362 195l1 -12q0 -10 -1 -19q-8 -76 -57.5 -124t-124.5 -40q-45 4 -80.5 29.5t-52.5 66.5q-36 73 -25 182q5 49 21.5 92.5t43.5 79t69.5 53.5t94.5 13q27 -3 50 -11l13 -6q4 -2 6 -5.5t1.5 -8t-1 -8t-2.5 -9.5t-3 -8q-1 -7 -7 -9.5t-12 -0.5q-19 9 -36 12h-1l-13 2
q-53 5 -90.5 -26.5t-57.5 -86.5l-10 -28l26 15q52 32 114 21q41 -7 71 -30.5t46 -57.5t17 -76zM308 158l2 12h-1q3 40 -9 69q-14 33 -46 49.5t-65 13.5t-62 -27.5t-39 -64.5q-1 -9 -2 -16q-4 -39 10 -71t46 -50q27 -14 59 -13.5t57 16.5q17 10 29 27q15 22 21 55z" />
    <glyph glyph-name="seven" unicode="7" horiz-adv-x="313" 
d="M279 507q6 0 10 -4t4 -10v-24q0 -3 -1 -6l-201 -449q-4 -9 -13 -9h-34q-8 0 -12.5 6.5t-0.5 13.5l194 430h-191q-4 0 -7 2t-5 5t-2 7v24q0 6 4 10t10 4h245z" />
    <glyph glyph-name="eight" unicode="8" horiz-adv-x="391" 
d="M295 258q52 -19 69.5 -72t-8.5 -101q-18 -37 -55 -59.5t-79.5 -26t-83.5 6.5t-72.5 38.5t-41.5 69.5q-11 46 8.5 87t63.5 57l23 9l-22 11q-35 19 -53 53.5t-12 74.5q5 31 24.5 55t47 36.5t60 18.5t64.5 0t59.5 -18.5t47 -36.5t24.5 -55q6 -40 -12 -74.5t-53 -53.5
l-22 -11zM89 395q-8 -29 6 -53.5t42 -36.5q24 -11 58 -13h1q34 2 58 13q31 13 44.5 42t-0.5 60q-13 29 -44.5 44t-65 13.5t-62.5 -19.5t-37 -50zM79 148q0 -26 13 -47t33.5 -32t45 -16t49.5 0t45.5 16t33.5 32t13 47q0 84 -116 91h-1q-116 -7 -116 -91z" />
    <glyph glyph-name="nine" unicode="9" horiz-adv-x="383" 
d="M203 515q45 -4 80.5 -29.5t52.5 -66.5q36 -74 25 -182q-5 -50 -21.5 -93.5t-43.5 -78.5t-69.5 -53t-94.5 -13q-27 3 -50 11l-13 5q-3 2 -5 5t-2.5 6t0.5 7.5t1.5 7.5t2 7.5t2.5 6.5q1 6 7 9t12 0q19 -8 36 -11l1 -1l13 -1q53 -5 90.5 26.5t57.5 85.5l10 29l-26 -16
q-52 -31 -114 -21q-61 11 -97 56t-37 108l-1 13q0 10 1 18q8 77 57.5 124.5t124.5 40.5zM297 321q4 39 -10 71t-46 49q-27 15 -59 14.5t-57 -16.5q-17 -11 -29 -27q-15 -22 -21 -56l-2 -11h1q-3 -40 9 -69q14 -33 46 -49.5t65 -13.5t62 27t39 65q1 9 2 16z" />
    <glyph glyph-name="colon" unicode=":" horiz-adv-x="155" 
d="M77.5 115q23.5 0 40.5 -17t17 -40.5t-17 -40.5t-40.5 -17t-40.5 17t-17 40.5t17 40.5t40.5 17zM77 273q-23 0 -40 17t-17 40.5t17 40.5t40.5 17t40.5 -17t17 -41q0 -11 -4.5 -22t-12.5 -18.5t-18.5 -12t-22.5 -4.5z" />
    <glyph glyph-name="semicolon" unicode=";" horiz-adv-x="163" 
d="M77 114q31 0 48.5 -23.5t17.5 -55.5q0 -40 -19 -78t-51 -65q-14 -13 -29 -1l-4 4q-8 6 -8.5 16.5t7.5 17.5q30 28 42 61l5 14h-15q-22 1 -35.5 16t-13.5 38t16 39.5t39 16.5zM77.5 272q-23.5 0 -40.5 17t-17 40q0 12 4.5 22.5t12.5 18.5t18.5 12.5t21.5 4.5q24 0 41 -17
t17 -40.5t-17 -40.5t-40.5 -17z" />
    <glyph glyph-name="less" unicode="&#x3c;" horiz-adv-x="265" 
d="M238 376q7 -8 6 -18t-8 -18l-127 -141l127 -142q7 -8 8 -18t-6 -18l-18 -16q-8 -7 -18 -4.5t-18 10.5l-159 177q-4 4 -5 11q1 6 5 11l159 177q7 8 17.5 10t18.5 -5z" />
    <glyph glyph-name="equal" unicode="=" horiz-adv-x="380" 
d="M345 368q7 0 11 -8t4 -15v-11q0 -8 -4 -15.5t-11 -7.5h-310q-5 0 -8.5 4t-5 9t-1.5 10v11q0 7 4 15t11 8h310zM345 170q7 0 11 -8t4 -15v-10q0 -3 -1 -7t-3 -7.5t-5 -6t-6 -2.5h-310q-7 0 -11 7.5t-4 15.5v10q0 4 1.5 9t5 9.5t8.5 4.5h310z" />
    <glyph glyph-name="greater" unicode="&#x3e;" horiz-adv-x="265" 
d="M80 387l160 -177q4 -5 5 -11q-1 -7 -5 -11l-160 -177q-7 -8 -17 -10.5t-19 4.5l-18 16q-7 8 -6 18t8 18l128 142l-128 141q-7 8 -8 18t6 18l18 16q9 7 19 5t17 -10z" />
    <glyph glyph-name="question" unicode="?" horiz-adv-x="405" 
d="M173.5 97q19.5 0 34 -14.5t14.5 -34t-14.5 -34t-34 -14.5t-34 14.5t-14.5 34t14.5 34t34 14.5zM335 666q42 -35 48.5 -86.5t-20.5 -99.5q-38 -77 -156 -174l-3 -3v-93q0 -11 -7 -20.5t-17 -9.5h-13q-11 0 -17.5 9.5t-6.5 20.5v94q0 14 9 23l3 4q99 81 141 145
q19 29 26 58t-3.5 57.5t-41.5 45.5q-53 25 -112 10.5t-101 -54.5q-5 -5 -12 -4.5t-11 6.5l-18 22q-8 11 2 21q58 58 150.5 69t159.5 -41z" />
    <glyph glyph-name="A" unicode="A" horiz-adv-x="510" 
d="M489 20q3 -7 -1.5 -13.5t-11.5 -6.5h-38q-10 0 -13 9l-42 104h-256l-42 -104q-3 -9 -13 -9h-37q-8 0 -12.5 6.5t-1.5 13.5l192 477q4 9 13 9h57q10 0 13 -9zM144 166h221l-110 282z" />
    <glyph glyph-name="B" unicode="B" horiz-adv-x="426" 
d="M334 252q21 -9 37.5 -27.5t25.5 -41.5t9 -47q0 -64 -40 -100t-105 -36h-217q-6 0 -10 4.5t-4 10.5v477q0 6 4 10t10 4h211q62 0 101.5 -33.5t39.5 -94.5q0 -34 -16.5 -63t-46.5 -43l-21 -10zM79 458v-168h176q40 0 65 22t25 62q0 26 -12 45t-32 29t-46 10h-176zM255 46
q41 0 65.5 24.5t24.5 65.5q0 27 -11 48t-31.5 32t-47.5 11h-176v-181h176z" />
    <glyph glyph-name="C" unicode="C" horiz-adv-x="484" 
d="M461 76q-71 -85 -181 -85q-113 0 -186.5 74.5t-73.5 187.5t73.5 187.5t186.5 74.5q111 0 181 -85q4 -5 2.5 -11.5t-7.5 -10.5l-24 -14q-11 -5 -18 4q-25 30 -60.5 47t-73.5 17q-58 0 -103.5 -28t-70 -75.5t-24.5 -105.5q0 -88 55.5 -148.5t142.5 -60.5q39 0 74.5 17
t59.5 47q7 9 18 4l25 -14q6 -3 7 -10t-3 -12z" />
    <glyph glyph-name="D" unicode="D" horiz-adv-x="472" 
d="M452 253q0 -113 -73 -183t-187 -70h-158q-6 0 -10 4.5t-4 10.5v477q0 6 4 10t10 4h158q113 0 186.5 -70.5t73.5 -182.5zM192 53q89 0 143.5 56t54.5 144q0 90 -54 145.5t-144 55.5h-112v-401h112z" />
    <glyph glyph-name="E" unicode="E" horiz-adv-x="391" 
d="M346 506q6 0 10 -4t4 -10v-24q0 -6 -4 -10t-10 -4h-256v-168h204q6 0 10.5 -4.5t4.5 -10.5v-24q0 -6 -4.5 -10t-10.5 -4h-204v-180h256q6 0 10 -4t4 -10v-24q0 -6 -4 -10.5t-10 -4.5h-302q-6 0 -10 4.5t-4 10.5v477q0 6 4 10t10 4h302z" />
    <glyph glyph-name="F" unicode="F" horiz-adv-x="380" 
d="M30 492q0 6 4 10t10 4h302q4 0 7 -1.5t5 -5t2 -7.5v-24q0 -6 -4 -10t-10 -4h-256v-168h206q6 0 10 -4.5t4 -10.5v-24q0 -6 -4 -10t-10 -4h-206v-218q0 -6 -4.5 -10.5t-10.5 -4.5h-31q-6 0 -10 4.5t-4 10.5v477z" />
    <glyph glyph-name="G" unicode="G" horiz-adv-x="499" 
d="M464 259q6 0 10.5 -4.5t4.5 -10.5v-161q0 -6 -4 -10q-78 -83 -195 -83q-113 0 -186.5 75t-73.5 188t73.5 187.5t186.5 74.5q111 0 184 -80q5 -5 4 -12t-7 -10l-22 -14q-10 -7 -18 2q-27 29 -64 45t-77 16q-58 0 -103.5 -28t-70 -75.5t-24.5 -105.5t24.5 -105.5t70 -76
t103.5 -28.5q37 0 73.5 14t62.5 39l3 3v107h-161q-6 0 -10 4t-4 10v24q0 6 4 10.5t10 4.5h206z" />
    <glyph glyph-name="H" unicode="H" horiz-adv-x="482" 
d="M437 506q6 0 10 -4t4 -10v-477q0 -4 -2 -7.5t-5 -5.5t-7 -2h-31q-6 0 -10 4.5t-4 10.5v219h-302v-219q0 -6 -4.5 -10.5t-10.5 -4.5h-31q-6 0 -10 4.5t-4 10.5v477q0 6 4 10t10 4h31q6 0 10.5 -4t4.5 -10v-205h302v205q0 6 4 10t10 4h31z" />
    <glyph glyph-name="I" unicode="I" horiz-adv-x="122" 
d="M30 493q0 4 2 8t5.5 6t8.5 2h31q6 0 10.5 -4.5t4.5 -11.5v-477q0 -7 -4.5 -11.5t-10.5 -4.5h-31q-7 0 -11.5 4.5t-4.5 11.5v477z" />
    <glyph glyph-name="J" unicode="J" horiz-adv-x="337" 
d="M307 152q0 -75 -42.5 -118t-117.5 -43t-123 49q-8 8 -1 18l14 20q3 6 10 6.5t12 -4.5q37 -36 84 -36q48 0 76 30.5t28 78.5v339q0 6 4.5 10t10.5 4h31q6 0 10 -4t4 -10v-340z" />
    <glyph glyph-name="K" unicode="K" horiz-adv-x="414" 
d="M344 0q-7 0 -11 5l-190 226l-53 -61v-155q0 -6 -4.5 -10.5t-10.5 -4.5h-31q-6 0 -10 4.5t-4 10.5v477q0 6 4 10t10 4h31q6 0 10.5 -4t4.5 -10v-252l224 261q4 5 11 5h36q9 0 13 -8t-2 -15l-190 -217l208 -242q6 -7 2.5 -15.5t-13.5 -8.5h-35z" />
    <glyph glyph-name="L" unicode="L" horiz-adv-x="347" 
d="M90 492v-439h222q6 0 10.5 -4t4.5 -10v-24q0 -6 -4.5 -10.5t-10.5 -4.5h-268q-6 0 -10 4.5t-4 10.5v477q0 6 4 10t10 4h31q6 0 10.5 -4t4.5 -10z" />
    <glyph glyph-name="M" unicode="M" horiz-adv-x="555" 
d="M293 9q-4 -9 -14 -9h-4q-9 0 -13 9l-172 418v-412q0 -6 -4.5 -10.5t-10.5 -4.5h-31q-6 0 -10 4.5t-4 10.5v477q0 6 4 10t10 4h31h2h1h30q10 0 14 -9l155 -377l157 378q4 8 13 8h30h2h32q6 0 10 -4t4 -10v-477q0 -4 -1.5 -7.5t-5 -5.5t-7.5 -2h-31q-6 0 -10 4.5t-4 10.5
v412z" />
    <glyph glyph-name="N" unicode="N" horiz-adv-x="479" 
d="M434 506q6 0 10 -4t4 -10v-477q0 -6 -4 -10.5t-10 -4.5h-37q-7 0 -11 6l-296 405v-396q0 -6 -4.5 -10.5t-10.5 -4.5h-31q-6 0 -10 4.5t-4 10.5v477q0 6 4 10t10 4h41q7 0 12 -5l291 -397v388q0 6 4.5 10t10.5 4h31z" />
    <glyph glyph-name="O" unicode="O" horiz-adv-x="542" 
d="M271 515q112 0 181.5 -74.5t69.5 -187.5t-69.5 -187.5t-181.5 -74.5t-181.5 74.5t-69.5 187.5t69.5 187.5t181.5 74.5zM271 44q87 0 138 60t51 149t-51 149t-138 60t-138 -60t-51 -149t51 -149t138 -60z" />
    <glyph glyph-name="P" unicode="P" horiz-adv-x="411" 
d="M391 355q0 -45 -20.5 -80t-56.5 -53.5t-81 -18.5h-143v-188q0 -6 -4.5 -10.5t-10.5 -4.5h-31q-6 0 -10 4.5t-4 10.5v477q0 6 4 10t10 4h189q69 0 113.5 -41.5t44.5 -109.5zM90 256h135q45 0 74.5 27t29.5 71.5t-29.5 72t-74.5 27.5h-135v-198z" />
    <glyph glyph-name="Q" unicode="Q" horiz-adv-x="542" 
d="M522 253q0 -108 -64 -181l-7 -7l39 -41q4 -4 3.5 -10.5t-4.5 -10.5l-20 -17q-10 -9 -20 1l-40 43l-7 -5q-58 -34 -131 -34q-112 0 -181.5 74.5t-69.5 187.5t69.5 187.5t181.5 74.5t181.5 -74.5t69.5 -187.5zM420 118q40 56 40 135q0 89 -51 149t-138 60t-138 -60
t-51 -149t51 -149t138 -60q48 0 88 20l12 7l-63 68q-4 5 -3.5 11t5.5 10l19 17q11 9 20 -2l63 -68z" />
    <glyph glyph-name="R" unicode="R" horiz-adv-x="411" 
d="M45 0q-6 0 -10.5 4.5t-4.5 10.5v477q0 6 4 10t10 4h189q70 0 114 -41t44 -110q0 -56 -31.5 -96t-85.5 -49l-16 -3l122 -184q5 -7 1 -15t-13 -8h-36q-8 0 -12 7l-126 196h-104v-188q0 -6 -4.5 -10.5t-10.5 -4.5h-30zM90 454v-199h135q13 0 25 2.5t22 7t19 11t16 15t12 18
t7.5 21.5t2.5 25q0 44 -29.5 71.5t-74.5 27.5h-135z" />
    <glyph glyph-name="S" unicode="S" horiz-adv-x="415" 
d="M93 378q0 -27 22.5 -45t56 -26.5t72.5 -21t72.5 -26.5t56 -45t22.5 -75q0 -51 -27.5 -85.5t-68 -48.5t-90.5 -14q-114 0 -185 70q-9 9 -1 19l17 23q4 5 10.5 5.5t11.5 -4.5q63 -60 149 -60q49 0 85.5 22t36.5 68q0 31 -22.5 51.5t-56 30t-72.5 21.5t-72.5 25t-56 41.5
t-22.5 71.5q0 66 52 102.5t121 36.5q104 0 169 -60q10 -9 1 -19l-17 -22q-4 -5 -10 -5t-11 4q-54 49 -137 49q-42 0 -74 -21.5t-32 -61.5z" />
    <glyph glyph-name="T" unicode="T" 
d="M403 468q0 -6 -4 -10t-10 -4h-148v-439q0 -6 -4 -10.5t-10 -4.5h-31q-6 0 -10.5 4.5t-4.5 10.5v439h-147q-6 0 -10 4t-4 10v24q0 6 4 10t10 4h355q6 0 10 -4t4 -10v-24z" />
    <glyph glyph-name="U" unicode="U" horiz-adv-x="473" 
d="M428 506q4 0 7 -1.5t5 -5t2 -7.5v-295q0 -99 -53.5 -152.5t-152.5 -53.5q-98 0 -152 53.5t-54 151.5v296q0 6 4 10t10 4h31q6 0 10.5 -4t4.5 -10v-294q0 -47 16.5 -81.5t49.5 -53.5t80 -19q71 0 108.5 41.5t37.5 112.5v294q0 6 4.5 10t10.5 4h31z" />
    <glyph glyph-name="V" unicode="V" horiz-adv-x="510" 
d="M226 0q-9 0 -13 9l-192 478q-3 7 1.5 13t12.5 6h37q10 0 13 -9l170 -434l170 434q3 9 13 9h38q7 0 11.5 -6t1.5 -13l-193 -478q-3 -9 -13 -9h-57z" />
    <glyph glyph-name="W" unicode="W" horiz-adv-x="679" 
d="M655.5 500.5q4.5 -5.5 2.5 -12.5l-136 -477q-3 -11 -14 -11h-44q-11 0 -14 11l-111 406l-111 -406q-2 -11 -13 -11h-45q-10 0 -13 11l-136 477q-2 7 2 12.5t11 5.5h37q11 0 14 -10l111 -420l116 420q3 10 14 10h28q11 0 14 -10l115 -420l111 420q3 10 14 10h36
q7 0 11.5 -5.5z" />
    <glyph glyph-name="X" unicode="X" horiz-adv-x="483" 
d="M401 6l-159 213l-160 -213q-4 -6 -11 -6h-36q-9 0 -13 8t1 15l180 237l-169 223q-5 7 -1 15t13 8h36q7 0 12 -5l148 -200l147 200q4 5 11 5h37q9 0 13 -8t-2 -15l-167 -222l179 -238q5 -7 1 -15t-13 -8h-35q-8 0 -12 6z" />
    <glyph glyph-name="Y" unicode="Y" horiz-adv-x="472" 
d="M438 506q8 0 12 -7.5t0 -14.5l-184 -269v-200q0 -6 -4 -10.5t-10 -4.5h-31q-6 0 -10 4.5t-4 10.5v200l-184 269q-5 7 -1 14.5t13 7.5h34q8 0 12 -6l155 -232l155 232q4 6 12 6h35z" />
    <glyph glyph-name="Z" unicode="Z" horiz-adv-x="472" 
d="M442 500q6 -2 8 -6q4 -8 -1 -15l-326 -425l261 1l2 -1h1h37q17 0 17 -17v-23q0 -17 -18 -17l-389 -1q-8 0 -12 8t1 15l326 424h-257h-1h-1h-12q-23 0 -23 17v25q0 3 2 6v1l2 2q1 2 2 2q1 2 4 3h2h1q1 1 4 2l1 -1q2 0 4 1l360 1l1 -1h1z" />
    <glyph glyph-name="bracketleft" unicode="[" horiz-adv-x="213" 
d="M174 808q8 0 13.5 -5.5t5.5 -14.5v-11q0 -8 -5.5 -14t-13.5 -6h-100v-705h100q8 0 13.5 -6t5.5 -14v-12q0 -8 -5.5 -14t-13.5 -6h-134q-8 0 -14 6t-6 14v768q0 9 6 14.5t14 5.5h134z" />
    <glyph glyph-name="backslash" unicode="\" horiz-adv-x="328" 
d="M79 709l228 -679q3 -11 -3.5 -20.5t-18.5 -9.5h-15q-16 0 -21 16l-228 678q-3 11 3.5 20.5t18.5 9.5h14q17 0 22 -15z" />
    <glyph glyph-name="bracketright" unicode="]" horiz-adv-x="213" 
d="M174 808q8 0 13.5 -5.5t5.5 -14.5v-768q0 -8 -5.5 -14t-13.5 -6h-134q-8 0 -14 6t-6 14v12q0 8 6 13.5t14 6.5h99v705h-99q-8 0 -14 6t-6 14v11q0 9 6 14.5t14 5.5h134z" />
    <glyph glyph-name="asciicircum" unicode="^" horiz-adv-x="437" 
d="M407 546q8 -7 10 -17t-5 -19l-16 -18q-8 -7 -18 -6t-18 8l-141 128l-142 -128q-8 -7 -18 -8t-18 6l-16 18q-7 9 -4.5 19t10.5 17l177 160q4 4 11 5q6 -1 11 -5z" />
    <glyph glyph-name="underscore" unicode="_" horiz-adv-x="624" 
d="M581 -27q10 0 16.5 -7t6.5 -16v-13q0 -6 -3 -11.5t-8 -8.5t-11 -3h-539q-10 0 -16.5 6.5t-6.5 16.5v13q0 9 6.5 16t16.5 7h538z" />
    <glyph glyph-name="a" unicode="a" horiz-adv-x="421" 
d="M381 393q19 0 20 -22v-346q0 -20 -21 -20h-18q-12 0 -16 7q-3 4 -3 14v30l-19 -18q-10 -10 -22 -17q-39 -25 -91 -25q-41 0 -76 16t-60 43q-26 27 -40.5 64t-14.5 79t14 79t40 65t61 44t76 16q26 0 50 -7t43 -19q12 -8 22 -17l17 -17l1 29q1 10 4 15q5 7 17 7h16z
M333 141q10 26 10 57q0 30 -10 56.5t-27.5 46.5t-41.5 31.5t-53 11.5t-53.5 -11.5t-42.5 -31.5t-28 -46.5t-10 -56.5t10.5 -56.5t28 -46t42.5 -30.5q24 -12 53 -12t53 11.5t41.5 31t27.5 45.5z" />
    <glyph glyph-name="b" unicode="b" horiz-adv-x="419" 
d="M42 5q-13 0 -18 8q-4 5 -4 16v458q0 10 4 16q6 6 18 6h16q13 0 18 -6q4 -6 4 -16v-147l17 17q10 10 22 19q37 28 93 28q39 0 73.5 -16t59.5 -43.5t40 -65t15 -79.5t-15 -79t-40 -64.5t-59.5 -43.5t-73.5 -16q-35 0 -61 8q-25 9 -42 21q-7 4 -13 9l-15 13l-1 -20
q0 -23 -23 -23h-15zM88.5 256.5q-10.5 -26.5 -10.5 -56t10.5 -56t28.5 -45.5q18 -20 42 -31q23 -12 49.5 -12t50.5 12q24 11 41 30q18 20 28.5 46.5t10.5 56t-10.5 56t-28.5 45.5q-17 19 -41 31q-24 11 -50.5 11t-49.5 -11q-24 -12 -42 -31t-28.5 -45.5z" />
    <glyph glyph-name="c" unicode="c" horiz-adv-x="389" 
d="M351 96l12 -18q3 -4 4 -8q2 -7 -5 -15q-28 -28 -67 -43q-38 -15 -74 -15q-39 1 -75 16.5t-64.5 42.5t-44.5 64q-17 37 -17 80q0 42 16 79t43.5 64t65 42.5t79.5 15.5q21 0 41 -5q19 -6 37 -14t33 -18q16 -11 27 -20q14 -12 3 -25l-15 -17q-4 -6 -12 -5q-5 0 -10 3
q-20 17 -47 31q-25 13 -57 13q-30 0 -57.5 -10.5t-46.5 -29.5q-20 -19 -32 -45.5t-12 -58.5q0 -33 12 -60t31.5 -45.5t47 -29t57.5 -10.5q24 0 52 11t51 31q7 8 15 5q6 -3 8 -5z" />
    <glyph glyph-name="d" unicode="d" horiz-adv-x="419" 
d="M74.5 56.5q-25.5 27.5 -40 64.5t-14.5 79t14.5 79.5t40.5 64.5q25 28 59 44q35 16 74 16q56 0 93 -28q12 -9 22 -19l16 -17v147q0 10 5 16t18 6h16q12 0 17 -6t5 -16v-458q0 -11 -4 -16q-6 -8 -18 -8h-16q-22 0 -23 23v21l-15 -14q-6 -4 -13 -9q-17 -12 -42.5 -20.5
t-60.5 -8.5q-39 0 -74 16q-34 16 -59.5 43.5zM91.5 256.5q-10.5 -26.5 -10.5 -56t10.5 -56t28.5 -45.5q17 -20 41 -31q24 -12 50 -12t50 12q24 11 42 31q18 19 28.5 45.5t10.5 56t-10.5 56t-28.5 45.5t-42 31q-24 11 -50 11t-50 -11q-24 -12 -41 -31q-18 -19 -28.5 -45.5z
" />
    <glyph glyph-name="e" unicode="e" horiz-adv-x="410" 
d="M390 206q0 -31 -38 -30h-274l3 -13q7 -32 27 -57.5t50 -39.5l2 -1q27 -11 57 -11q12 1 24 3q14 3 29 8q27 11 50 32q8 8 16 4q5 -2 8 -4q0 -1 1 -1l12 -19q3 -3 4 -7q2 -7 -6 -15q-28 -28 -66 -43q-39 -16 -74 -15q-32 1 -63 11v2l-7 2q-78 27 -111 109q-29 73 -0.5 152
t100.5 113q34 15 72 15.5t72 -15.5q51 -24 81.5 -73.5t30.5 -106.5zM81 233h250l-4 14q-12 44 -47 71t-78.5 26t-77.5 -33q-27 -26 -39 -64z" />
    <glyph glyph-name="f" unicode="f" horiz-adv-x="250" 
d="M43 237q-11 0 -16 4q-7 6 -7 18v14q0 12 7 18q5 4 16 4h44v110q0 33 8 54q7 22 21.5 35t32.5 18q18 4 38 4h12q9 0 16 -2q11 -4 11 -18v-20q0 -14 -11 -18q-7 -2 -14 -2h-13q-21 -2 -30 -13q-10 -11 -10 -48v-100h58q24 0 24 -23v-12q0 -23 -24 -23h-57v-209
q0 -11 -8 -17t-17 -6h-14q-22 0 -22 23v31h-1v178h-44z" />
    <glyph glyph-name="g" unicode="g" horiz-adv-x="425" 
d="M404 68q0 -7 0.5 -31t0 -33t-1.5 -29t-4 -31.5t-8.5 -27.5t-14 -29t-19.5 -26q-25 -27 -60 -40q-35 -14 -78 -14q-31 0 -56 8q-24 7 -47 20q-13 7 -13 17q0 3 4 9q2 4 5 8l6 8q2 3 2 4q8 14 21 8q6 -3 17 -7q13 -7 29 -11t30 -4q25 0 50 8q50 18 72 70q4 9 4 39v43l4 29
l-22 -20q-10 -9 -24 -17q-40 -23 -90 -23q-41 0 -76 16t-60 43q-26 27 -40.5 64t-14.5 79t14 79t40 65t61 44t76 16q26 0 50 -7t44 -19q13 -8 24 -19l18 -16l1 30q2 22 22 22h13q21 0 21 -22v-303zM335.5 141q10.5 26 10.5 57q0 30 -10 56.5t-28 46.5t-44 32q-24 11 -53 11
t-54 -11q-25 -12 -42 -32q-18 -20 -28 -46q-10 -27 -10 -57t10.5 -56t27.5 -46q18 -20 43 -31q24 -12 53 -12t53.5 11.5t42.5 31t28.5 45.5z" />
    <glyph glyph-name="h" unicode="h" horiz-adv-x="373" 
d="M42 5q-22 0 -22 22v466q0 23 21 23h18q21 0 21 -23v-136l16 12q11 9 24 16q35 19 77 19q36 0 65 -13.5t49 -37.5q21 -24 31 -56q11 -31 11 -66v-204q0 -22 -21 -22h-18q-21 0 -21 22v212q0 21 -7 40t-20 33t-31 23q-18 8 -40 8q-21 0 -42 -8t-37 -22t-26 -33
q-10 -18 -10 -39v-214q0 -22 -22 -22h-16z" />
    <glyph glyph-name="i" unicode="i" horiz-adv-x="126" 
d="M63 449q-14 0 -23.5 9.5t-9.5 23.5t9.5 23.5t23.5 9.5t23.5 -9.5t9.5 -23.5t-9.5 -23.5t-23.5 -9.5zM70 394q23 0 23 -23v-343q0 -23 -23 -23h-15q-23 0 -23 23v343q0 23 23 23h15z" />
    <glyph glyph-name="j" unicode="j" horiz-adv-x="192" 
d="M148 407q13 0 18 -8q4 -7 4 -16v-431q0 -26 -10 -49t-26.5 -40t-39.5 -27.5t-48 -10.5q-26 0 -26 20v18q0 12 9 17q7 5 15 5q28 -1 47 20q18 20 18 48v430q0 24 22 24h17zM140 462q-14 0 -23.5 9.5t-9.5 22.5q0 14 9.5 23.5t23.5 9.5t23 -9.5t9 -23.5q0 -13 -9 -22.5
t-23 -9.5z" />
    <glyph glyph-name="k" unicode="k" horiz-adv-x="387" 
d="M42 5q-22 0 -22 22v471q0 23 21 23h19q20 0 20 -23v-259l177 171q4 4 9 7t15 3h29q16 0 17 -13q2 -10 -6 -18l-143 -137l183 -215q10 -13 4 -23q-6 -9 -17 -9h-28q-9 0 -15 6q-5 4 -8 7l-162 191l-55 -52v-130q0 -22 -23 -22h-15z" />
    <glyph glyph-name="l" unicode="l" horiz-adv-x="143" 
d="M40 498q0 6 4.5 11t11.5 5h31q6 0 10.5 -5t4.5 -11v-477q0 -7 -4.5 -11.5t-10.5 -4.5h-31q-7 0 -11.5 4.5t-4.5 11.5v477z" />
    <glyph glyph-name="m" unicode="m" horiz-adv-x="653" 
d="M40 5q-20 0 -20 21v213q0 35 13 65t35.5 52.5t52.5 35.5t64 13h6q34 0 64 -13t53 -35q6 -6 11 -13l8 -9l7 9q6 6 12 13q22 22 52.5 35t64.5 13h2h4q33 0 63.5 -13t53 -35.5t35.5 -52.5t13 -65v-213q0 -21 -20 -21h-19q-13 0 -18 7q-5 6 -5 17v212q0 21 -8 40t-23 32.5
t-35 22.5q-19 8 -40.5 8t-40.5 -8q-20 -9 -35 -22.5t-23 -32.5t-8 -40v-212q0 -10 -5 -16q-4 -7 -16 -8h-21h-2q-11 1 -16 7q-4 6 -4 17v212q0 21 -8.5 40t-23 32.5t-34.5 22.5q-20 8 -41 8t-41 -8q-19 -9 -34 -22.5t-23 -32.5q-9 -19 -9 -40v-212q0 -10 -4 -16
q-5 -8 -18 -8h-19z" />
    <glyph glyph-name="n" unicode="n" horiz-adv-x="424" 
d="M43 -1q-22 0 -22 22l-1 171v9q2 37 15 70q14 37 40 65t61 44t76 16t76 -16t61 -44t41 -65q12 -33 14 -70v-9v-171q0 -22 -23 -22h-16q-22 0 -22 22l1 171h1l-1 10q-1 24 -9 46q-10 26 -28 46q-17 20 -42 31q-24 12 -53 12t-53 -12q-24 -11 -42 -31t-27 -46
q-8 -22 -10 -46v-10h1v-171q0 -22 -22 -22h-16z" />
    <glyph glyph-name="o" unicode="o" horiz-adv-x="433" 
d="M398 277.5q15 -36.5 15 -78.5t-15 -79t-41.5 -64.5t-62.5 -43.5t-78 -16t-78 16t-62 43.5t-41 64.5t-15 79t15 78.5t41 64.5t62 44t78 16t78 -16t62.5 -44t41.5 -64.5zM344.5 142.5q10.5 26.5 11 56.5t-10.5 56.5t-29.5 46t-43.5 31.5q-25 11 -55 11t-55.5 -11.5t-44 -31
t-29 -46t-10.5 -56.5t10.5 -56.5t29 -46.5t44 -31.5t55.5 -11.5t55 11.5t43.5 31.5t29 46.5z" />
    <glyph glyph-name="p" unicode="p" horiz-adv-x="420" 
d="M38 -179q-12 0 -16 8q-2 5 -2 13v546q0 20 21 20h19q20 0 20 -19v-23l16 14q6 5 13 10q17 12 42.5 20.5t60.5 8.5q39 0 74 -16q34 -16 59 -43.5t40 -64.5t15 -79t-15 -79.5t-40 -65.5q-25 -27 -59 -43q-35 -16 -74 -16q-56 0 -93 27q-12 10 -22 20l-17 17v-234
q0 -7 -2 -12q-4 -9 -17 -9h-23zM88.5 271.5q-10.5 -26.5 -10.5 -56t10.5 -56t28.5 -45.5q18 -20 42 -31q23 -12 49.5 -12t50.5 12q24 11 41 31q18 19 28.5 45.5t10.5 56t-10.5 56t-28.5 45.5q-17 20 -41 31t-50.5 11t-49.5 -11q-24 -12 -42 -31t-28.5 -45.5z" />
    <glyph glyph-name="q" unicode="q" horiz-adv-x="419" 
d="M74.5 71.5q-25.5 27.5 -40 65t-14.5 79.5t15 79q14 37 39.5 64.5t60 43.5t73.5 16q35 0 60 -8q26 -9 43 -21q7 -5 13 -10l16 -14v22q0 20 20 20h18q22 0 22 -20v-546q0 -8 -3 -13q-3 -8 -15 -8h-23q-14 0 -17 9q-3 5 -3 12v234l-16 -17q-10 -10 -22 -20q-37 -27 -93 -27
q-39 0 -74 16q-34 16 -59.5 43.5zM91.5 271.5q-10.5 -26.5 -10.5 -56t10.5 -56t28 -46t41.5 -30.5q24 -12 50 -12t50 12q24 11 42 31q18 19 28.5 45.5t10.5 56t-10.5 56t-28.5 45.5t-42 31q-24 11 -50 11t-50 -11t-41 -31q-18 -19 -28.5 -45.5z" />
    <glyph glyph-name="r" unicode="r" horiz-adv-x="308" 
d="M42 5q-22 0 -22 22v343q0 26 21 26h19q12 0 16 -9q1 -2 1 -8t1 -9l4 -13l11 8q75 55 183 29q10 -4 12 -11q0 -5 -1 -9l-3 -22q0 -1 -1 -2q-1 -3 -5 -8q-7 -7 -17 -3q-31 11 -63 6t-58 -19t-43 -41.5t-17 -61.5v-196q0 -22 -22 -22h-16z" />
    <glyph glyph-name="s" unicode="s" horiz-adv-x="312" 
d="M155 237q137 -35 137 -125q0 -54 -41.5 -84.5t-97.5 -30.5q-40 0 -73 16q-32 15 -55 48q-12 18 4 30l13 9q20 15 35 -8l13 -19l1 5q17 -15 42 -22q24 -7 52 1.5t42 28.5q7 11 7 25t-7 25q-20 28 -81 43q-48 11 -81.5 39.5t-33.5 72.5q0 52 35.5 81.5t88.5 29.5h13
q17 -1 33 -6l8 -2l9 -4q13 -6 26 -17q17 -12 5 -27l-9 -13q-13 -20 -35 -2q-16 10 -33 14v1l-11 1h-6q-13 0 -25 -3.5t-21.5 -10t-15 -17.5t-5.5 -25q0 -37 67 -54z" />
    <glyph glyph-name="t" unicode="t" horiz-adv-x="251" 
d="M43 338q-23 0 -23 23q0 26 7 31q6 4 16 4h44v10q0 15 0.5 43.5t0.5 42.5q0 23 22 23h17q22 0 22 -23v-86v-10h58q23 0 23 -23v-12q0 -23 -23 -23h-58v-215q0 -38 9 -49t29 -13h7.5h8t7 -0.5t7 -2t4.5 -3.5t4 -5.5t1 -8.5v-8v-9t-1 -8t-3.5 -8t-6.5 -4q-7 -3 -27 -3
q-54 0 -77.5 28t-23.5 83v226h-44z" />
    <glyph glyph-name="u" unicode="u" horiz-adv-x="422" 
d="M401 370l1 -170l-1 -10q-1 -37 -14 -69q-14 -38 -40 -65.5t-61 -43.5t-75.5 -16t-75.5 16t-60.5 43.5t-40.5 65.5q-12 33 -14 69v10l1 170q0 21 20 21h17q20 0 20 -21v-170h-1l1 -11q1 -24 9 -46q10 -27 28 -47t42.5 -31.5t53.5 -11.5t53 12q25 11 43 31t27 47
q8 22 10 46l1 11h-2v170q0 21 21 21h16q21 0 21 -21z" />
    <glyph glyph-name="v" unicode="v" horiz-adv-x="393" 
d="M369 388q7 -6 0 -22l-145 -346q-6 -15 -22 -15h-11q-17 0 -23 15l-145 346q-6 15 0 22q5 5 15 5h24q13 0 17 -10l117 -281l117 281q6 10 18 10h24q9 0 14 -5z" />
    <glyph glyph-name="w" unicode="w" horiz-adv-x="599" 
d="M561 393q11 0 16 -6.5t1 -16.5l-147 -349l-3.5 -7t-4 -4.5t-4 -2.5t-5 -1.5t-5.5 -0.5h-7h-7q-15 0 -20 15l-76 181l-75 -180q-6 -16 -21 -16h-7.5h-7.5t-6 0.5t-6 2.5l-4.5 4.5t-3.5 7.5l-146 347q-4 10 0 18t15 8h25q13 0 17 -11l117 -280l10 24q10 24 31.5 77t33.5 82
q2 4 4.5 7t4 4.5t6 2.5t6 1h7.5h8q15 0 20 -15q10 -23 21.5 -51.5t23.5 -57t21 -50.5l10 -24l117 282q4 9 16 9h25z" />
    <glyph glyph-name="x" unicode="x" horiz-adv-x="356" 
d="M333 28q4 -5 3 -12q-2 -11 -15 -11h-25q-11 0 -22 14l-96 143l-95 -142q-3 -5 -8 -9q-6 -6 -18 -6h-22q-14 0 -15 12q0 7 2 12l123 181l-104 157q-6 9 -3 17q3 9 15 9h19q10 0 15 -3t8 -9l83 -121l84 123q5 6 8.5 8t9.5 2h28q10 0 14 -6q4 -7 0 -13l-111 -164z" />
    <glyph glyph-name="y" unicode="y" horiz-adv-x="399" 
d="M165 38l-144 345q-2 8 0 16q3 11 17 11h21q10 0 14 -4q5 -3 7 -8l120 -286l115 281q6 17 20 17h26q15 0 18 -11q1 -7 -2 -15l-228 -542q-4 -7 -8 -11q-4 -5 -15 -5h-22q-8 0 -15 6q-8 8 -2 21z" />
    <glyph glyph-name="z" unicode="z" horiz-adv-x="366" 
d="M329 62q17 0 17 -17v-23q0 -17 -18 -17h-282q-10 0 -17 3q-9 4 -9 17v17v6q1 5 5 10l238 278h-224q-17 0 -17 16v26q0 15 14 15h289q8 0 14 -4q6 -6 6 -15v-19q0 -12 -7 -19l-233 -274h224z" />
    <glyph glyph-name="braceleft" unicode="{" horiz-adv-x="262" 
d="M222 808q8 0 14 -5.5t6 -14.5v-11q0 -8 -6 -14t-14 -6h-37q-28 0 -44.5 -22.5t-16.5 -51.5v-197q0 -51 -28 -73l-11 -9l11 -8q28 -22 28 -74v-196q0 -29 16.5 -51.5t44.5 -22.5h37q8 0 14 -6t6 -14v-12q0 -8 -6 -14t-14 -6h-37q-50 0 -83.5 37t-33.5 88v192q0 20 -8 38
t-26 24q-14 4 -14 19v2v3v1v2v2v3q0 14 14 19q18 5 26 23t8 39v191q0 51 33 88t84 37h37z" />
    <glyph glyph-name="bar" unicode="|" horiz-adv-x="99" 
d="M56 724q9 0 16 -6.5t7 -16.5v-678q0 -10 -7 -16.5t-16 -6.5h-13q-10 0 -16.5 6.5t-6.5 16.5v678q0 10 6.5 16.5t16.5 6.5h13z" />
    <glyph glyph-name="braceright" unicode="}" horiz-adv-x="262" 
d="M228 430q14 -5 14 -20v-2v-2v-2v-1v-3v-2q0 -15 -14 -19q-18 -6 -26.5 -24t-8.5 -38v-192q0 -51 -32.5 -88t-83.5 -37h-37q-8 0 -14 6t-6 14v12q0 8 6 13.5t14 5.5h37q28 0 44.5 23t16.5 52v196q0 52 28 74l11 8l-11 9q-28 21 -28 73v197q0 29 -16.5 51.5t-44.5 22.5h-37
q-8 0 -14 6t-6 14v11q0 9 6 14.5t14 5.5h37q34 0 61 -17.5t41 -46t14 -61.5v-191q0 -21 8.5 -39t26.5 -23z" />
    <glyph glyph-name="nonbreakingspace" unicode="&#xa0;" horiz-adv-x="226" 
 />
    <glyph glyph-name="exclamdown" unicode="&#xa1;" horiz-adv-x="137" 
d="M75 535q7 0 12.5 -4.5t8.5 -11.5t3 -14v-475q0 -7 -3 -14t-8.5 -11.5t-12.5 -4.5h-13q-11 0 -17.5 9.5t-6.5 20.5v475q0 11 6.5 20.5t17.5 9.5h13zM68.5 710q19.5 0 34 -14.5t14.5 -34.5t-14.5 -34t-34 -14t-34 14t-14.5 34t14.5 34.5t34 14.5z" />
    <glyph glyph-name="questiondown" unicode="&#xbf;" horiz-adv-x="404" 
d="M381 92q8 -11 -1 -21q-59 -59 -151.5 -69.5t-158.5 41.5q-43 35 -49 86t20 99q38 77 156 175l4 3v93q0 11 6.5 20.5t17.5 9.5h13q10 0 17 -9.5t7 -20.5v-94q0 -15 -9 -24l-3 -3q-100 -81 -142 -146q-19 -29 -26 -57.5t3.5 -57t41.5 -45.5q53 -25 112.5 -10.5t101.5 54.5
q5 5 11.5 4t11.5 -6zM231 612q-20 0 -34.5 14t-14.5 34t14.5 34.5t34.5 14.5t34 -14.5t14 -34.5t-14 -34t-34 -14z" />
    <glyph glyph-name="Agrave" unicode="&#xc0;" horiz-adv-x="512" 
d="M229 587q-9 8 -35.5 29.5t-38.5 35.5q-11 11 -5.5 25t18 18t24.5 -6q10 -9 24.5 -20.5t27.5 -22.5t23 -22t4.5 -25t-18 -18t-24.5 6zM491 22q3 -8 -1.5 -15t-12.5 -7h-38q-10 0 -14 10l-41 103h-255l-41 -103q-4 -10 -15 -10h-37q-9 0 -13.5 7t-1.5 14l192 478
q4 10 14 10h57q11 0 15 -10zM147 168h218l-109 277z" />
    <glyph glyph-name="Aacute" unicode="&#xc1;" horiz-adv-x="512" 
d="M284 587q-9 -8 -19.5 -7.5t-17 8.5t-8.5 17.5t7 18.5q7 8 17.5 17t19 16t19 16t18.5 16q8 8 18.5 7t17 -8.5t9 -17t-6.5 -18.5q-8 -9 -18 -18t-18.5 -15.5t-19.5 -15.5t-18 -16zM491 21q3 -7 -1.5 -14t-12.5 -7h-38q-10 0 -14 10l-41 103h-255l-41 -103q-4 -10 -15 -10
h-37q-9 0 -13.5 7t-1.5 14l192 478q4 10 14 10h57q11 0 15 -10zM147 168h218l-109 277z" />
    <glyph glyph-name="Acircumflex" unicode="&#xc2;" horiz-adv-x="512" 
d="M205 589q-11 -11 -25 -5.5t-18 18t5 25.5q9 10 22.5 21.5t28 23t23.5 19.5q14 15 31 3h1q1 -1 2 -3l2 -1q6 -6 23.5 -20t29.5 -24t21 -21q10 -10 4.5 -24.5t-18 -18.5t-24.5 6q-8 8 -25.5 22t-23.5 19l-6 5l-6 -5q-5 -5 -22.5 -18.5t-24.5 -21.5zM491 21q3 -7 -1.5 -14
t-12.5 -7h-38q-10 0 -14 10l-41 103h-255l-41 -103q-4 -10 -15 -10h-37q-9 0 -13.5 7t-1.5 14l192 478q4 10 14 10h57q11 0 15 -10zM147 168h218l-109 277z" />
    <glyph glyph-name="Atilde" unicode="&#xc3;" horiz-adv-x="512" 
d="M149 597q-7 1 -11 7q-3 3 -3 9q1 8 5 18.5t10 19.5t12 14q41 33 113 -15q23 -16 39 -18q17 -2 28 6q8 7 13 23l1 1v1q1 7 6 11q6 4 13 3t11 -7q2 -2 2.5 -3.5t0.5 -3t-0.5 -3t-1 -3.5t-0.5 -4q-8 -30 -25 -44q-21 -17 -50 -13q-22 3 -57 28q-8 6 -13.5 9.5t-13.5 7.5
t-14.5 4.5t-14.5 -1t-15 -7.5q-9 -6 -14 -20.5t-8 -16.5q-6 -4 -13 -3zM491 21q3 -7 -1.5 -14t-12.5 -7h-38q-10 0 -14 10l-41 103h-255l-41 -103q-4 -10 -15 -10h-37q-9 0 -13.5 7t-1.5 14l192 478q4 10 14 10h57q11 0 15 -10zM147 168h218l-109 277z" />
    <glyph glyph-name="Adieresis" unicode="&#xc4;" horiz-adv-x="512" 
d="M336 605q-14 0 -23.5 9.5t-9.5 22.5q0 14 9.5 23.5t23.5 9.5t23.5 -9.5t9.5 -23.5q0 -13 -9.5 -22.5t-23.5 -9.5zM166 605q-14 0 -23.5 9.5t-9.5 22.5q0 14 9.5 23.5t23.5 9.5t23.5 -9.5t9.5 -23.5q0 -13 -9.5 -22.5t-23.5 -9.5zM491 21q3 -7 -1.5 -14t-12.5 -7h-38
q-10 0 -14 10l-41 103h-255l-41 -103q-4 -10 -15 -10h-37q-9 0 -13.5 7t-1.5 14l192 478q4 10 15 10h56q11 0 15 -10zM147 168h218l-109 277z" />
    <glyph glyph-name="Aring" unicode="&#xc5;" horiz-adv-x="512" 
d="M491 21q3 -7 -1.5 -14t-12.5 -7h-38q-10 0 -14 10l-42 103h-254l-41 -103q-4 -10 -15 -10h-37q-9 0 -13.5 7t-1.5 14l190 473q-7 5 -12 10q-10 11 -16 25t-6 30t6 30t16 25t24 17t30 6t30 -6t24 -17t16 -25t6 -30t-6 -30t-16 -25q-2 -2 -8 -7zM272 514q8 4 14.5 10.5
t9.5 15.5q4 9 4 19.5t-4 18.5q-3 9 -9.5 16t-15 10.5t-18.5 3.5t-18.5 -3.5t-14.5 -10t-10 -16t-4 -19.5t4 -19t10 -15.5t14.5 -10.5t18.5 -4t19 4zM147 168h218l-109 277z" />
    <glyph glyph-name="AE" unicode="&#xc6;" horiz-adv-x="620" 
d="M585 453h-255v-165h203q6 0 11 -4.5t5 -11.5v-24q0 -6 -5 -11t-11 -5h-203v-177h255q6 0 10.5 -4.5t4.5 -10.5v-24q0 -7 -4.5 -11.5t-10.5 -4.5h-302q-6 0 -11 4.5t-5 11.5v97h-138l-41 -103q-4 -10 -15 -10h-37q-9 0 -13.5 7t-1.5 14l192 478q4 10 14 10h358
q6 0 10.5 -5t4.5 -11v-24q0 -7 -4.5 -11.5t-10.5 -4.5zM147 168h121l-2 301z" />
    <glyph glyph-name="Ccedilla" unicode="&#xc7;" horiz-adv-x="487" 
d="M459 108q6 -4 7.5 -11t-3.5 -13q-71 -85 -181 -85h-3.5h-3h-2.5v-41l17 -14q39 -30 49 -50q11 -23 8 -44q-4 -21 -21 -35q-25 -22 -64 -18q-41 3 -67 29q-2 3 -2.5 6.5t1.5 5.5q7 9 9 11t5.5 2t5.5 -2l1 -1q18 -16 43 -22q24 -5 41 5l3 1q12 9 15 22q3 15 -7 33l-4 6
q-10 15 -40 37q-13 10 -19 14q-4 4 -4 12v46q-99 13 -161 85t-62 175q0 114 74 188.5t188 74.5q111 0 181 -85q4 -6 3 -13t-8 -11l-24 -13q-12 -7 -20 3q-24 30 -59.5 47t-72.5 17q-88 0 -143 -60t-55 -148t55.5 -148t142.5 -60q38 0 73 17t59 47q8 10 20 4z" />
    <glyph glyph-name="Egrave" unicode="&#xc8;" horiz-adv-x="373" 
d="M174 587q-9 9 -35.5 30.5t-38.5 34.5q-10 11 -5 25.5t17.5 18t25.5 -5.5q9 -9 35.5 -30.5t38.5 -34.5q10 -11 5 -25.5t-17.5 -18t-25.5 5.5zM337 453h-255v-166h203q7 0 11.5 -4.5t4.5 -10.5v-25q0 -6 -4.5 -10.5t-11.5 -4.5h-203v-177h255q7 0 11.5 -4.5t4.5 -11.5v-24
q0 -6 -4.5 -10.5t-11.5 -4.5h-301q-7 0 -11.5 4.5t-4.5 10.5v477q0 7 4.5 11.5t11.5 4.5h301q7 0 11.5 -4.5t4.5 -11.5v-24q0 -6 -4.5 -10.5t-11.5 -4.5z" />
    <glyph glyph-name="Eacute" unicode="&#xc9;" horiz-adv-x="373" 
d="M191 585q-11 -11 -25 -6t-18 18t5 25q13 14 39 35.5t35 29.5q8 9 19 8t17.5 -8.5t8.5 -17.5t-7 -19q-12 -14 -38.5 -35t-35.5 -30zM337 453h-255v-165h203q7 0 11.5 -5t4.5 -11v-24q0 -6 -4.5 -11t-11.5 -5h-203v-177h255q7 0 11.5 -4.5t4.5 -10.5v-24q0 -7 -4.5 -11.5
t-11.5 -4.5h-301q-7 0 -11.5 4.5t-4.5 11.5v477q0 6 4.5 11t11.5 5h301q7 0 11.5 -5t4.5 -11v-24q0 -7 -4.5 -11.5t-11.5 -4.5z" />
    <glyph glyph-name="Ecircumflex" unicode="&#xca;" horiz-adv-x="373" 
d="M140 592q-11 -11 -25 -6t-18 18t5 25q13 14 39 35t35 30q14 14 31 3l1 -1q1 -1 3 -2l1 -2q7 -5 24 -19t29 -24.5t21 -20.5q11 -11 5.5 -25.5t-18 -18t-25.5 5.5q-8 8 -25.5 22.5t-22.5 18.5l-7 6l-6 -6q-5 -4 -22 -18t-25 -21zM337 454h-255v-166h203q7 0 11.5 -4.5
t4.5 -10.5v-25q0 -6 -4.5 -10.5t-11.5 -4.5h-203v-177h255q7 0 11.5 -4.5t4.5 -11.5v-24q0 -6 -4.5 -10.5t-11.5 -4.5h-301q-7 0 -11.5 4.5t-4.5 10.5v477q0 7 4.5 11.5t11.5 4.5h301q7 0 11.5 -4.5t4.5 -11.5v-24q0 -6 -4.5 -10.5t-11.5 -4.5z" />
    <glyph glyph-name="Edieresis" unicode="&#xcb;" horiz-adv-x="373" 
d="M273 603q-14 0 -23.5 9.5t-9.5 22.5q0 14 9.5 24t23.5 10t23.5 -10t9.5 -24q0 -13 -9.5 -22.5t-23.5 -9.5zM103 603q-14 0 -23.5 9.5t-9.5 22.5q0 14 9.5 24t23.5 10t23.5 -10t9.5 -24q0 -13 -9.5 -22.5t-23.5 -9.5zM337 454h-255v-165h203q7 0 11.5 -4.5t4.5 -11.5v-24
q0 -6 -4.5 -11t-11.5 -5h-203v-177h255q7 0 11.5 -4.5t4.5 -10.5v-24q0 -7 -4.5 -11.5t-11.5 -4.5h-301q-7 0 -11.5 4.5t-4.5 11.5v477q0 6 4.5 11t11.5 5h301q7 0 11.5 -5t4.5 -11v-24q0 -7 -4.5 -11.5t-11.5 -4.5z" />
    <glyph glyph-name="Igrave" unicode="&#xcc;" horiz-adv-x="177" 
d="M139 625q8 -8 6.5 -19t-9 -17.5t-17 -8.5t-18.5 7t-35.5 30.5t-39.5 34.5q-10 11 -4.5 25.5t18 18t24.5 -5.5q10 -9 36 -30.5t39 -34.5zM141 509q7 0 11.5 -4.5t4.5 -10.5v-477q0 -7 -4.5 -11.5t-11.5 -4.5h-31q-6 0 -10.5 4.5t-4.5 11.5v477q0 6 4.5 10.5t10.5 4.5h31z
" />
    <glyph glyph-name="Iacute" unicode="&#xcd;" horiz-adv-x="171" 
d="M106 689q11 11 25 6t18 -18t-4 -25q-13 -14 -39.5 -35t-35.5 -30q-8 -8 -18.5 -7t-17 8.5t-8.5 17t6 18.5q13 14 39 35.5t35 29.5zM67 509q4 0 7.5 -2t5.5 -5.5t2 -7.5v-477q0 -7 -4.5 -11.5t-10.5 -4.5h-31q-7 0 -11.5 4.5t-4.5 11.5v477q0 6 4.5 10.5t11.5 4.5h31z" />
    <glyph glyph-name="Icircumflex" unicode="&#xce;" horiz-adv-x="237" 
d="M211 622q10 -11 4.5 -25.5t-18 -18t-24.5 5.5q-8 8 -25.5 22t-23.5 19l-6 6l-6 -6l-22.5 -18t-24.5 -21q-11 -11 -25 -6t-18 18t4 25q10 10 23.5 21.5t28 23t23.5 20.5q14 14 31 3l1 -1l2 -2l2 -2q6 -5 23.5 -19t29 -24.5t21.5 -20.5zM139 509q6 0 11 -4.5t5 -10.5v-477
q0 -7 -5 -11.5t-11 -4.5h-31q-6 0 -11 4.5t-5 11.5v477q0 6 5 10.5t11 4.5h31z" />
    <glyph glyph-name="Idieresis" unicode="&#xcf;" horiz-adv-x="275" 
d="M246 660.5q9 -9.5 9 -23.5t-9 -23.5t-23 -9.5t-23.5 9.5t-9.5 23.5t9.5 23.5t23.5 9.5t23 -9.5zM53 670q14 0 23.5 -9.5t9.5 -23.5t-9.5 -23.5t-23.5 -9.5t-23.5 9.5t-9.5 23.5t9.5 23.5t23.5 9.5zM155 509q6 0 10.5 -4.5t4.5 -10.5v-477q0 -7 -4.5 -11.5t-10.5 -4.5h-31
q-7 0 -11.5 4.5t-4.5 11.5v477q0 6 4.5 10.5t11.5 4.5h31z" />
    <glyph glyph-name="Eth" unicode="&#xd0;" horiz-adv-x="527" 
d="M246 509q114 0 187.5 -71t73.5 -184t-73.5 -183.5t-187.5 -70.5h-158q-6 0 -10.5 4.5t-4.5 11.5v207h-37q-7 0 -11.5 4.5t-4.5 11.5v31q0 4 2 7.5t5.5 5.5t8.5 2h37v208q0 6 4.5 11t10.5 5h158zM246 55q58 0 103 25.5t69 70.5t24 103q0 59 -24 104t-68.5 70t-103.5 25
h-111v-168h115q6 0 10.5 -4.5t4.5 -10.5v-31q0 -7 -4.5 -11.5t-10.5 -4.5h-115v-168h111z" />
    <glyph glyph-name="Ntilde" unicode="&#xd1;" horiz-adv-x="461" 
d="M131.5 596q-7.5 1 -11.5 6q-2 4 -2 10t2.5 13.5t6.5 14.5t8.5 13.5t9.5 10.5q41 33 112 -15q24 -16 40 -18t27 6q8 7 14 23v1v1q1 6 7 10q5 5 12.5 4t11.5 -7q2 -2 2.5 -4.5t0.5 -3.5t-1.5 -4.5t-1.5 -4.5q-7 -31 -25 -44q-21 -17 -49 -13q-22 2 -58 28q-10 8 -17 12
t-16.5 7.5t-18.5 2t-18 -8.5t-14.5 -21t-8.5 -16q-5 -4 -12.5 -3zM425 508q6 0 11 -4.5t5 -11.5v-477q0 -6 -5 -11t-11 -5h-37q-8 0 -12 7l-294 401v-392q0 -6 -4.5 -11t-10.5 -5h-31q-7 0 -11.5 5t-4.5 11v477q0 7 4.5 11.5t11.5 4.5h40q8 0 13 -6l289 -394v384q0 7 5 11.5
t11 4.5h31z" />
    <glyph glyph-name="Ograve" unicode="&#xd2;" horiz-adv-x="545" 
d="M238 585q-9 9 -35.5 30t-39.5 35q-10 11 -4.5 25t18 18t24.5 -6q10 -8 36 -29.5t39 -35.5q10 -11 4.5 -25t-18 -18t-24.5 6zM272 517q75 0 133 -35t89 -94.5t31 -133.5q0 -113 -70 -188t-183 -75q-112 0 -182 74.5t-70 188t70 188.5t182 75zM272 46q87 0 137.5 60
t50.5 148q0 57 -21.5 103.5t-65 75t-101.5 28.5q-87 0 -137.5 -59.5t-50.5 -147.5q0 -89 51 -148.5t137 -59.5z" />
    <glyph glyph-name="Oacute" unicode="&#xd3;" horiz-adv-x="545" 
d="M278 585q-8 -8 -18.5 -7t-17 8.5t-8.5 17t6 18.5q10 11 23.5 22t27.5 22.5t24 20.5q8 8 18.5 7t17 -8.5t8.5 -17t-6 -18.5q-13 -14 -39.5 -35t-35.5 -30zM272 517q113 0 183 -75t70 -188t-70 -188t-183 -75q-112 0 -182 74.5t-70 188t70 188.5t182 75zM272 46
q87 0 137.5 60t50.5 148q0 57 -21.5 103.5t-65 75t-101.5 28.5q-87 0 -137.5 -59.5t-50.5 -147.5q0 -89 51 -148.5t137 -59.5z" />
    <glyph glyph-name="Ocircumflex" unicode="&#xd4;" horiz-adv-x="545" 
d="M219 586q-11 -11 -25 -5.5t-18 18t5 24.5q13 14 39 35.5t36 29.5q14 14 30 3h1q2 -1 3 -3l2 -1q6 -5 14.5 -12.5t16 -13t15 -12.5t15 -13.5t13.5 -13.5q10 -11 4.5 -25t-18 -18t-24.5 6q-8 8 -26 22t-23 19l-6 5l-7 -5q-4 -5 -21.5 -18.5t-25.5 -21.5zM272 517
q113 0 183 -75t70 -188t-70 -188t-183 -75q-112 0 -182 74.5t-70 188t70 188.5t182 75zM272 46q87 0 137.5 60t50.5 148q0 57 -21.5 103.5t-65 75t-101.5 28.5q-87 0 -137.5 -59.5t-50.5 -147.5q0 -89 51 -148.5t137 -59.5z" />
    <glyph glyph-name="Otilde" unicode="&#xd5;" horiz-adv-x="545" 
d="M147 596q-7 1 -11 7q-3 3 -3 9q1 12 9.5 28.5t17.5 23.5q41 33 113 -15q23 -16 39 -18q17 -2 28 7q8 6 13 22l1 1v1q1 7 6 11q6 4 13 3t11 -7q2 -1 2.5 -3t0.5 -3.5v-2.5t-1 -3.5t-1 -4.5q-8 -30 -25 -44q-21 -17 -50 -13q-22 3 -57 28q-10 8 -17 12t-16.5 7.5t-19 2
t-18.5 -8t-14 -21t-8 -15.5q-6 -5 -13 -4zM272 517q75 0 133 -35t89 -94.5t31 -133.5q0 -113 -70 -188t-183 -75q-112 0 -182 74.5t-70 188t70 188.5t182 75zM272 46q87 0 137.5 60t50.5 148q0 57 -21.5 103.5t-65 75t-101.5 28.5q-87 0 -137.5 -59.5t-50.5 -147.5
q0 -89 51 -148.5t137 -59.5z" />
    <glyph glyph-name="Odieresis" unicode="&#xd6;" horiz-adv-x="545" 
d="M354 600q-14 0 -23.5 9.5t-9.5 22.5q0 15 9.5 24.5t23.5 9.5t23.5 -10t9.5 -24q0 -13 -9.5 -22.5t-23.5 -9.5zM184.5 600q-14.5 0 -24 9.5t-9.5 22.5q0 15 10 24.5t24 9.5t23 -10t9 -24q0 -13 -9 -22.5t-23.5 -9.5zM272 517q75 0 133 -35t89 -94.5t31 -133.5
q0 -113 -70 -188t-183 -75q-112 0 -182 74.5t-70 188t70 188.5t182 75zM272 46q87 0 137.5 60t50.5 148t-50.5 147.5t-137.5 59.5t-137.5 -59.5t-50.5 -147.5q0 -89 51 -148.5t137 -59.5z" />
    <glyph glyph-name="Oslash" unicode="&#xd8;" horiz-adv-x="546" 
d="M522 469l-45 -45q48 -69 48 -161q0 -113 -70 -188t-182 -75q-95 0 -162 56l-42 -43q-12 -11 -23 1l-21 21q-11 11 0 23l44 44q-48 69 -48 161q0 113 70 188t182 75q95 0 162 -56l43 43q11 11 22 0l22 -22q11 -11 0 -22zM85 263q0 -65 29 -116l279 281q-50 43 -120 43
q-87 0 -137.5 -59.5t-50.5 -148.5zM273 55q87 0 137.5 60t50.5 148q0 65 -28 116l-280 -280q50 -44 120 -44z" />
    <glyph glyph-name="Ugrave" unicode="&#xd9;" horiz-adv-x="455" 
d="M204 582q-9 9 -35 30t-39 35q-10 11 -5 25t17.5 18t25.5 -6q9 -8 35.5 -29.5t38.5 -35.5q10 -10 5 -24.5t-17.5 -18.5t-25.5 6zM419 519q4 0 7.5 -2t5.5 -5.5t3 -7.5v-295q0 -99 -54.5 -153t-153.5 -54q-98 0 -152.5 54t-54.5 152v296q0 6 4.5 10.5t11.5 4.5h31
q6 0 10.5 -4.5t4.5 -10.5v-294q0 -71 37.5 -112t107.5 -41t107.5 41t37.5 112v294q0 6 4.5 10.5t11.5 4.5h31z" />
    <glyph glyph-name="Uacute" unicode="&#xda;" horiz-adv-x="455" 
d="M225 588q-8 -8 -18.5 -7t-17 8.5t-9 17t6.5 18.5q13 14 39 35.5t35 29.5q9 9 19.5 8t17 -8.5t8.5 -17.5t-7 -19q-7 -8 -17.5 -17t-19 -16t-19 -15.5t-18.5 -16.5zM419 519q6 0 10.5 -4.5t5.5 -10.5v-295q0 -99 -54.5 -153t-153.5 -54q-98 0 -152.5 54t-54.5 152v296
q0 6 4.5 10.5t11.5 4.5h31q6 0 10.5 -4.5t4.5 -10.5v-294q0 -71 37.5 -112t107.5 -41t107.5 41t37.5 112v294q0 6 4.5 10.5t11.5 4.5h31z" />
    <glyph glyph-name="Ucircumflex" unicode="&#xdb;" horiz-adv-x="455" 
d="M172 587q-11 -11 -25 -5.5t-17.5 18t4.5 25.5q13 13 39 34.5t36 29.5q14 15 30 3h1q2 -1 3 -3l2 -1q7 -6 18.5 -15.5t19.5 -16.5t18 -16t18 -17q10 -11 4.5 -25t-18 -18t-24.5 6q-8 8 -26 22t-23 19l-6 5l-7 -5q-4 -4 -21.5 -18t-25.5 -22zM419 519q6 0 10.5 -4.5
t5.5 -10.5v-295q0 -99 -54.5 -153t-153.5 -54q-98 0 -152.5 54t-54.5 152v296q0 6 4.5 10.5t11.5 4.5h31q6 0 10.5 -4.5t4.5 -10.5v-294q0 -71 37.5 -112t107.5 -41t107.5 41t37.5 112v294q0 6 4.5 10.5t11.5 4.5h31z" />
    <glyph glyph-name="Udieresis" unicode="&#xdc;" horiz-adv-x="455" 
d="M306 605q-14 0 -23.5 9.5t-9.5 23.5t9.5 23.5t23.5 9.5t23 -9.5t9 -23.5t-9 -23.5t-23 -9.5zM136 605q-14 0 -23.5 9.5t-9.5 23.5t9.5 23.5t23.5 9.5t23 -9.5t9 -23.5t-9 -23.5t-23 -9.5zM419 519q6 0 10.5 -4.5t5.5 -10.5v-295q0 -99 -54.5 -153t-153.5 -54
q-98 0 -152.5 54t-54.5 152v296q0 6 4.5 10.5t11.5 4.5h31q6 0 10.5 -4.5t4.5 -10.5v-294q0 -71 37.5 -112t107.5 -41t107.5 41t37.5 112v294q0 6 4.5 10.5t11.5 4.5h31z" />
    <glyph glyph-name="Yacute" unicode="&#xdd;" horiz-adv-x="475" 
d="M235 589q-8 -8 -18.5 -7t-17 8.5t-8.5 17t6 18.5q13 14 39 35.5t35 29.5q9 9 19.5 8t17 -8.5t8.5 -17.5t-6 -19q-13 -14 -39.5 -35t-35.5 -30zM452.5 500q4.5 -8 -0.5 -16l-183 -269v-200q0 -6 -4.5 -10.5t-11.5 -4.5h-31q-6 0 -10.5 4.5t-4.5 10.5v200l-184 269
q-5 8 -1 16t14 8h34q9 0 13 -7l154 -230l154 230q5 7 13 7h35q9 0 13.5 -8z" />
    <glyph glyph-name="Thorn" unicode="&#xde;" horiz-adv-x="403" 
d="M224 433q70 0 114.5 -42t44.5 -111t-45 -111t-114 -42h-142v-113q0 -6 -4.5 -10.5t-10.5 -4.5h-31q-7 0 -11.5 4.5t-4.5 10.5v478q0 6 4.5 10.5t11.5 4.5h31q6 0 10.5 -4.5t4.5 -10.5v-59h142zM216 182q45 0 74 26.5t29 71t-29 71t-74 26.5h-134v-195h134z" />
    <glyph glyph-name="germandbls" unicode="&#xdf;" horiz-adv-x="470" 
d="M424 200q26 -30 26 -72q0 -56 -42 -96q-42 -41 -107 -41q-52 0 -91 28q-23 16 -35 32t-29 48q-3 7 -3.5 11.5t3.5 8.5t6.5 6t10.5 5.5t10 4.5q4 4 8.5 2t7.5 -3.5t6.5 -7t5 -9t4 -9t3.5 -7.5q20 -33 40 -48q24 -17 51 -17q37 0 63.5 25t26.5 60q0 28 -16 48
q-10 13 -50 40q-71 49 -86.5 71.5t-15.5 45.5q0 15 5 31q6 16 28 54q23 39 29 58q21 58 -23 95q-40 34 -92 19q-66 -18 -83 -103q-6 -27 -6 -58v-452q0 -7 -2 -12q-4 -8 -17 -8h-23q-11 0 -15 7q-2 5 -2 13v455q0 139 92 188q69 36 146 8q66 -25 84 -80q10 -33 -2 -69
q-8 -23 -27 -57q-20 -35 -25 -49q-6 -16 -6 -28q0 -17 11 -33q10 -15 55 -45q58 -37 76 -60z" />
    <glyph glyph-name="agrave" unicode="&#xe0;" 
d="M180 486q-9 8 -35.5 29.5t-39.5 35.5q-10 11 -4.5 25t18 18t24.5 -6q10 -9 36 -30t39 -35q10 -11 4.5 -25t-18 -18t-24.5 6zM382 400q21 0 21 -24v-346q0 -21 -22 -21h-18q-13 0 -17 7q-4 5 -4 15v27l-16 -16q-10 -9 -22 -17q-39 -25 -92 -25q-41 0 -76 16
q-36 16 -61 43.5t-40 64.5t-15 79t14 80q15 37 41 65q25 28 61 44q35 16 76 16q26 0 50 -7t44 -19q12 -8 22 -17l16 -16v27v1q1 9 4 15q5 8 18 8h16zM332.5 146.5q9.5 26.5 9.5 56.5t-9.5 56.5t-27 46t-41.5 31t-52.5 11.5t-52.5 -11t-42 -31t-28 -46.5t-10 -56.5t10.5 -56
t27.5 -45q18 -19 42 -31t53 -12t53 12q24 11 41 30t26.5 45.5z" />
    <glyph glyph-name="aacute" unicode="&#xe1;" 
d="M273 489q-8 -9 -18.5 -8t-17 8.5t-9 17.5t6.5 19q13 14 39 35t35 30q8 8 19 7t17 -8.5t8.5 -17t-6.5 -18.5q-9 -11 -22.5 -22t-28 -23t-23.5 -20zM382 400q21 0 21 -24v-346q0 -21 -22 -21h-18q-13 0 -17 7q-4 5 -4 15v27l-16 -16q-10 -9 -22 -17q-39 -25 -92 -25
q-41 0 -76 16q-36 16 -61 43.5t-40 64.5t-15 79t14 80q15 37 41 65q25 28 61 44q35 16 76 16q26 0 50 -7t44 -19q12 -8 22 -17l16 -16v27v1q1 9 4 15q5 8 18 8h16zM332.5 146.5q9.5 26.5 9.5 56.5t-9.5 56.5t-27 46t-41.5 31t-52 11.5q-29 0 -53 -11t-42 -31t-28 -47
q-10 -26 -10 -56t10.5 -56t27.5 -45q18 -19 42 -31t53 -12t53 12q24 11 41 30t26.5 45.5z" />
    <glyph glyph-name="acircumflex" unicode="&#xe2;" 
d="M162 493q-11 -11 -25 -5.5t-18 18t5 25.5q13 13 39 34.5t35 29.5q14 15 31 3h1l3 -3l2 -1q5 -5 12 -11t13 -10.5t13 -10.5t12.5 -11t12 -10.5t11.5 -11.5q10 -11 4.5 -25t-18 -18t-24.5 6q-8 8 -26 22t-23 19l-6 5l-7 -5q-5 -4 -22 -18t-25 -22zM382 400q21 0 21 -24
v-346q0 -21 -22 -21h-18q-13 0 -17 7q-4 6 -4 15v27l-16 -16q-10 -9 -22 -17q-39 -25 -92 -25q-41 0 -76 16q-36 16 -61 43.5t-40 64.5t-15 79t14 80q15 37 41 65q25 28 61 44q35 16 76 16q26 0 50 -7t44 -19q12 -8 22 -17l16 -16v27v1q1 9 4 15q5 8 18 8h16zM332.5 146.5
q9.5 26.5 9.5 56.5t-9.5 56.5t-27 46t-41.5 31t-52 11.5q-29 0 -53 -11t-42 -31t-28 -47q-10 -26 -10 -56t10.5 -56t27.5 -45q18 -19 42 -31t53 -12t53 12q24 11 41 30t26.5 45.5z" />
    <glyph glyph-name="atilde" unicode="&#xe3;" 
d="M86.5 492q-7.5 1 -11.5 6q-2 4 -2 9q0 8 4 18.5t10 20t13 14.5q41 33 112 -15q24 -16 39 -18q17 -2 28 6q8 6 14 23v1q1 7 6 11q6 4 13.5 3.5t11.5 -6.5q4 -5 1 -13q-1 -3 -1 -4q-8 -31 -25 -45q-21 -16 -50 -13q-22 3 -57 29q-10 7 -17 11t-16.5 8t-19 2t-18.5 -8
q-7 -5 -10.5 -13t-6 -15t-5.5 -9q-5 -4 -12.5 -3zM382 400q21 0 21 -24v-346q0 -21 -22 -21h-18q-13 0 -17 7q-4 5 -4 15v27l-16 -16q-10 -9 -22 -17q-39 -25 -92 -25q-41 0 -76 16q-36 16 -61 43.5t-40 64.5t-15 79t14 80q15 37 41 65q25 28 61 44q35 16 76 16q26 0 50 -7
t44 -19q12 -8 22 -17l16 -16v27v1q1 9 4 15q5 8 18 8h16zM333 146.5q10 26.5 9 56.5q0 30 -9.5 56.5t-27 46t-41.5 31t-52 11.5q-29 0 -53 -11t-42 -31t-28 -47q-9 -26 -9 -56t10 -56t28 -45q17 -19 41 -31t53 -12t53 12q24 11 41 30t27 45.5z" />
    <glyph glyph-name="adieresis" unicode="&#xe4;" 
d="M292 479q-14 0 -23.5 9.5t-9.5 23.5t9.5 23.5t23.5 9.5t23.5 -9.5t9.5 -23.5t-9.5 -23.5t-23.5 -9.5zM122 479q-14 0 -23.5 9.5t-9.5 23.5t9.5 23.5t23.5 9.5t23.5 -9.5t9.5 -23.5t-9.5 -23.5t-23.5 -9.5zM382 400q21 0 21 -24v-346q0 -21 -22 -21h-18q-13 0 -17 7
q-4 5 -4 15v27l-16 -16q-10 -9 -22 -17q-39 -25 -92 -25q-41 0 -76 16q-36 16 -61 43.5t-40 64.5t-15 79t14 80q15 37 41 65q25 28 61 44q35 16 76 16q26 0 50 -7t44 -19q12 -8 22 -17l16 -16v27v1q1 9 4 15q5 8 18 8h16zM333 146q9 26 9 57q0 30 -9.5 56.5t-27 46t-41.5 31
t-52.5 11.5t-52.5 -11t-42 -31t-28 -47q-9 -26 -9 -56t10 -56t28 -45q17 -19 41 -31t53 -12t53 12q24 11 41 30t27 45z" />
    <glyph glyph-name="aring" unicode="&#xe5;" 
d="M382 400q21 0 21 -24v-346q0 -21 -22 -21h-18q-13 0 -17 7q-4 5 -4 15v27l-16 -16q-10 -9 -22 -17q-39 -25 -92 -25q-41 0 -76 16q-36 16 -61 43.5t-40 64.5t-15 79t14 80q15 37 41 65q25 28 61 44q6 3 23 8q-11 6 -18 13q-10 11 -15.5 25t-5.5 30.5t5.5 30.5t15.5 25
q10 10 24 16.5t30 6.5t30 -6.5t24 -16.5q11 -11 16 -25q6 -14 6 -30.5t-6 -30.5q-5 -14 -16 -25q-3 -3 -9 -8q13 -1 22 -4q24 -7 44 -19q12 -8 22 -17l16 -16v27v1q1 9 4 15q5 8 18 8h16zM152.5 449q3.5 -9 9.5 -15.5t15 -10.5t18.5 -4t18.5 4t15 10.5t9.5 15.5t3.5 19.5
t-3 19.5q-4 9 -10 15.5t-15 10.5t-18.5 4t-18.5 -4t-15 -10.5t-9.5 -15.5t-3.5 -19.5t3.5 -19.5zM332.5 146.5q9.5 26.5 9.5 56.5t-9.5 56.5t-27 46t-41.5 31t-52.5 11.5t-52.5 -11t-42 -31t-28 -47q-9 -26 -9 -56t10 -56t28 -45q17 -19 41 -31t53 -12t53 12q24 11 41 30
t26.5 45.5z" />
    <glyph glyph-name="ae" unicode="&#xe6;" horiz-adv-x="734" 
d="M714 217q0 -31 -38 -31h-272l2 -11q6 -32 26 -57.5t50 -38.5l2 -1q27 -11 57 -11q11 1 23 3q14 3 29 8q27 11 50 32q8 8 17 4q6 -2 9 -5q0 -1 1 -1l12 -18q3 -3 4 -8q2 -8 -6 -16q-29 -29 -67 -44t-74 -14q-34 1 -64 11v1l-7 3q-27 9 -50 26l-15 12v-31q0 -21 -22 -21
h-18q-13 0 -17 7q-4 5 -4 15v27l-16 -16q-10 -9 -22 -17q-39 -25 -92 -25q-41 0 -76 16q-36 16 -61 43.5t-40 64.5t-15 79t14 80q15 37 41 65q25 28 61 44q35 16 76 16q26 0 50 -7t44 -19q12 -8 22 -17l16 -16v27v1q1 9 4 15q5 8 18 8h16q18 0 21 -20l2 -17l13 11
q18 15 39 24q34 16 72.5 16.5t72.5 -15.5q52 -24 82 -74t30 -108zM333 146q9 26 9 57v6q-1 27 -9 50q-10 27 -27.5 46.5t-41.5 31t-52.5 11.5t-52.5 -11t-42 -31t-28 -47q-9 -26 -9 -56t10 -56t28 -45q17 -19 41 -31t53 -12t53 12q24 11 41 30t27 45zM406 246h247l-3 12
q-12 44 -46.5 71t-78 26t-77.5 -34q-26 -25 -38 -63z" />
    <glyph glyph-name="ccedilla" unicode="&#xe7;" horiz-adv-x="392" 
d="M353 102l13 -19q3 -3 4 -8q2 -8 -6 -15q-29 -29 -67 -44q-34 -13 -69 -14v-34l17 -13q39 -31 49 -51q11 -23 8 -44t-21 -35q-25 -22 -64 -18q-41 3 -67 29q-2 3 -2.5 6.5t2.5 5.5q7 9 8 11q2 2 5.5 2t5.5 -2l2 -1q17 -16 42 -22q24 -4 42 5l2 1q13 9 15 22q3 15 -7 33
l-3 6q-11 15 -41 37q-13 10 -19 14q-4 4 -4 12v38q-30 4 -51 14q-37 15 -65 42t-45 64t-17 81q0 43 16 80t44 64t65.5 42.5t80.5 15.5q20 0 40 -5q19 -5 38 -14q17 -9 33 -19q15 -9 27 -19q15 -13 4 -27q-1 0 -1 -1l-14 -15l-1 -1q-4 -6 -12 -5q-6 0 -12 3q-20 17 -46 31
q-25 12 -57 12q-30 0 -57 -10q-26 -10 -46 -29t-32 -45t-12 -58q0 -33 12 -59q12 -27 32 -46q20 -18 46 -28q28 -11 57 -11q24 0 52 11t50 31q8 8 17 5q5 -2 8 -5z" />
    <glyph glyph-name="egrave" unicode="&#xe8;" horiz-adv-x="412" 
d="M185 483q-9 9 -35.5 30t-38.5 35q-10 11 -5 25t17.5 18t25.5 -6q9 -9 23.5 -20.5t27.5 -22.5t23 -22t5 -25t-17.5 -18t-25.5 6zM392 215q0 -31 -39 -32h-272l2 -11q7 -32 27 -57t49 -39l2 -1q27 -10 57 -10q11 0 23 2q14 3 29 9q27 10 51 31q8 8 16 4q6 -2 9 -5l1 -1
l12 -18q3 -3 4 -8q2 -8 -6 -16q-29 -28 -66 -43q-39 -16 -75 -15q-33 1 -64 12v1l-6 2q-79 27 -112 110q-30 73 -1 152.5t101 113.5q35 16 73 16t73 -16q51 -24 81.5 -73.5t30.5 -107.5zM83 243h248l-4 12q-12 44 -46.5 71t-77.5 26t-77 -33q-27 -26 -39 -63z" />
    <glyph glyph-name="eacute" unicode="&#xe9;" horiz-adv-x="412" 
d="M203 485q-11 -11 -25 -6t-18 18t5 25q9 10 22.5 21.5t28 23t23.5 20.5q8 8 18.5 7t17 -8.5t9 -17t-6.5 -19.5q-10 -10 -23 -21.5t-27.5 -23t-23.5 -19.5zM392 215q0 -31 -39 -32h-272l2 -11q7 -32 27 -57t49 -39l2 -1q27 -10 57 -10q11 0 23 2q14 3 29 9q27 10 51 31
q8 8 16 4q6 -2 9 -5l1 -1l12 -18q3 -3 4 -8q2 -8 -6 -16q-29 -28 -66 -43q-39 -16 -75 -15q-33 1 -64 12v1l-6 2q-79 27 -112 110q-30 73 -1 152.5t101 113.5q35 16 73 16t73 -16q51 -24 81.5 -73.5t30.5 -107.5zM83 243h248l-4 12q-12 44 -46.5 71t-78 26t-76.5 -33
q-27 -26 -39 -63z" />
    <glyph glyph-name="ecircumflex" unicode="&#xea;" horiz-adv-x="412" 
d="M146 480q-10 -11 -24 -5.5t-18 18t4 25.5q13 13 39.5 34.5t35.5 29.5q14 15 31 3h1q1 -1 2 -3l2 -1q6 -6 23.5 -19.5t29 -24t21.5 -21.5q10 -10 4.5 -24.5t-18 -18.5t-24.5 6q-8 8 -25.5 22t-23.5 19l-6 5l-6 -5l-22.5 -18t-25.5 -22zM392 215q0 -31 -39 -32h-272l2 -11
q7 -32 27 -57t49 -39l2 -1q27 -10 57 -10q11 0 23 2q14 3 29 9q27 10 51 31q8 8 16 4q6 -2 9 -5l1 -1l12 -18q3 -3 4 -8q2 -8 -6 -16q-29 -28 -66 -43q-39 -16 -75 -15q-33 1 -64 12v1l-6 2q-79 27 -112 110q-30 73 -1 152.5t101 113.5q35 16 73 16t73 -16
q51 -24 81.5 -73.5t30.5 -107.5zM83 243h248l-4 12q-12 44 -46.5 71t-78 26t-76.5 -33q-27 -26 -39 -63z" />
    <glyph glyph-name="edieresis" unicode="&#xeb;" horiz-adv-x="412" 
d="M291 479q-14 0 -23.5 9.5t-9.5 23.5t9.5 23.5t23.5 9.5t23 -9.5t9 -23.5t-9 -23.5t-23 -9.5zM121 479q-14 0 -23.5 9.5t-9.5 23.5t9.5 23.5t23.5 9.5t23.5 -9.5t9.5 -23.5t-9.5 -23.5t-23.5 -9.5zM392 215q0 -31 -39 -31h-272l2 -12q7 -32 27 -57t49 -39l2 -1
q27 -10 57 -10q11 0 23 2q14 3 29 9q27 10 51 31q8 8 16 4q6 -2 9 -5l1 -1l12 -18q3 -3 4 -8q2 -8 -6 -16q-29 -28 -66 -43q-39 -16 -75 -15q-33 1 -64 12v1l-6 2q-79 27 -112 110q-30 73 -1 152.5t101 113.5q35 16 73 16t73 -16q51 -24 81.5 -73.5t30.5 -107.5zM83 243h248
l-4 12q-12 44 -46.5 71t-78 26t-76.5 -33q-27 -26 -39 -63z" />
    <glyph glyph-name="igrave" unicode="&#xec;" horiz-adv-x="169" 
d="M139 498q10 -11 4.5 -25t-18 -18t-24.5 6q-9 8 -35.5 29.5t-39.5 35.5q-10 11 -4.5 25t18 18t24.5 -6q10 -9 36 -30t39 -35zM126 398q23 0 23 -23v-343q0 -23 -23 -23h-15q-23 0 -23 23v343q0 23 23 23h15z" />
    <glyph glyph-name="iacute" unicode="&#xed;" horiz-adv-x="175" 
d="M110 564q11 11 25 6t18 -18t-5 -25q-9 -11 -21 -21.5t-29 -24t-24 -19.5q-11 -11 -25 -6t-18 18t5 25q13 14 39 35t35 30zM58 398q23 0 23 -23v-343q0 -23 -23 -23h-15q-23 0 -23 23v343q0 23 23 23h15z" />
    <glyph glyph-name="icircumflex" unicode="&#xee;" horiz-adv-x="237" 
d="M211 514q10 -11 4.5 -25t-18 -18t-24.5 6q-8 7 -25.5 21.5t-23.5 18.5l-6 6l-6 -6q-5 -4 -22.5 -17.5t-24.5 -21.5q-11 -11 -25 -6t-18 18t4 25q13 14 39.5 35t35.5 30q14 14 31 3l1 -1l2 -2l2 -2q6 -5 23.5 -19t29 -24.5t21.5 -20.5zM126 398q23 0 23 -23v-343
q0 -23 -23 -23h-15q-23 0 -23 23v343q0 23 23 23h15z" />
    <glyph glyph-name="idieresis" unicode="&#xef;" horiz-adv-x="275" 
d="M246 534q9 -10 9 -23q0 -14 -9 -23.5t-23 -9.5t-23.5 9.5t-9.5 23.5t9.5 23.5t23.5 9.5t23 -10zM53 544q14 0 23.5 -9.5t9.5 -23.5t-9.5 -23.5t-23.5 -9.5t-23.5 9.5t-9.5 23.5t9.5 23.5t23.5 9.5zM145 398q23 0 23 -23v-343q0 -23 -23 -23h-15q-23 0 -23 23v343
q0 23 23 23h15z" />
    <glyph glyph-name="eth" unicode="&#xf0;" horiz-adv-x="435" 
d="M400 283q15 -38 15 -79q0 -42 -15 -79t-41 -65q-27 -28 -63 -44q-37 -16 -79 -16t-78 16t-62.5 44t-41.5 64.5t-15 79t15 79.5t41.5 65t62.5 44t78 16q30 0 63 -11q-27 47 -64 91q-52 -31 -72 -42q-7 -4 -11 4q-2 6 3 10q18 12 69 41q-25 27 -53 54q-10 10 -3 21l7 11
q4 6 11 7.5t12 -2.5q39 -28 74 -64q11 6 31 18q28 16 29 17q6 3 10 -3.5t-2 -10.5q-19 -12 -56 -33q83 -89 125 -203q2 -7 6 -17h-3q1 -1 3.5 -5.5t3.5 -7.5zM345 148q10 26 10 56t-10.5 56.5t-28.5 45.5q-19 19 -44 31q-25 11 -54 11q-30 0 -55 -11.5t-43 -30.5
q-19 -20 -29 -46q-11 -26 -11 -56t11 -56q10 -26 29 -46q18 -19 43 -31t55 -12q29 0 54 12q25 11 44 31t29 46z" />
    <glyph glyph-name="ntilde" unicode="&#xf1;" horiz-adv-x="424" 
d="M102.5 464q-7.5 1 -11.5 6q-2 4 -2 10q0 12 8.5 28t18.5 24q41 33 112 -15q24 -16 39 -18q17 -2 28 6q8 7 14 23v1v1q1 6 6 10q6 5 13 4t12 -7q1 -2 1.5 -4.5t0.5 -3.5t-1 -4.5t-1 -4.5q-8 -30 -25 -44q-21 -17 -50 -13q-22 2 -57 28q-10 8 -17 12t-16.5 7.5t-19 2
t-18.5 -8.5t-14 -21t-8 -16q-5 -4 -12.5 -3zM404 196v-171q-1 -22 -23 -22h-16q-22 0 -22 22l1 171v10q-2 24 -10 46q-9 26 -27 46t-42 31.5t-53 11.5t-53 -11.5t-42 -31.5t-27 -46q-8 -22 -10 -46v-10h1v-171q0 -22 -22 -22h-16q-22 0 -23 22v171l1 9q1 37 14 70
q14 37 40 65t61 44t76 16t76 -16t61 -44t41 -65q12 -33 14 -70v-9z" />
    <glyph glyph-name="ograve" unicode="&#xf2;" horiz-adv-x="435" 
d="M174 465q-9 9 -35.5 30t-39.5 35q-10 11 -4.5 25t18 18t24.5 -6q8 -7 18.5 -16t19.5 -15.5t19 -16t18 -17.5q10 -11 4.5 -25t-18 -18t-24.5 6zM400 283q15 -38 15 -79q0 -42 -15 -79t-41 -65q-27 -28 -63 -44q-37 -16 -79 -16t-78 16t-62.5 44t-41.5 65q-15 36 -15 78.5
t15 79.5t41.5 65t62.5 44t78 16t79 -16q36 -16 62.5 -44t41.5 -65zM345 148q10 26 10 56t-10.5 56.5t-28.5 45.5q-19 19 -44 31q-25 11 -54 11q-30 0 -55 -11.5t-43 -30.5q-19 -20 -29 -46q-11 -26 -11 -56t11 -56q10 -26 29 -46q18 -19 43.5 -31t54.5 -12t55 12
q25 11 43.5 31t28.5 46z" />
    <glyph glyph-name="oacute" unicode="&#xf3;" horiz-adv-x="435" 
d="M237 461q-11 -11 -25 -6t-18 18t5 25q10 11 23 22t27.5 22.5t23.5 20.5q9 8 19.5 7t17 -8.5t8.5 -17t-6 -18.5q-13 -14 -39.5 -35t-35.5 -30zM400 283q15 -38 15 -79.5t-15 -78.5q-15 -38 -41 -65q-27 -28 -63 -44q-37 -16 -79 -16t-78 16t-62.5 44t-41.5 65
q-15 36 -15 78.5t15 79.5t41.5 65t62.5 44t78 16t79 -16q36 -16 62.5 -44t41.5 -65zM345 148q11 26 10 56q0 30 -10.5 56.5t-28.5 45.5t-43.5 30.5t-54.5 11.5t-54.5 -11.5t-43.5 -30.5q-19 -20 -29 -46q-11 -26 -11 -56t11 -56q10 -26 29 -46q18 -19 43.5 -31t54.5 -12
t55 12q25 11 43.5 31t28.5 46z" />
    <glyph glyph-name="ocircumflex" unicode="&#xf4;" horiz-adv-x="435" 
d="M163 461q-11 -12 -25 -6.5t-17.5 18t4.5 25.5q13 13 39 34.5t36 29.5q14 15 30 3h1q2 -1 3 -3l2 -1q6 -6 23.5 -19.5t29 -24t21.5 -21.5q10 -10 4.5 -24.5t-18 -18.5t-24.5 6q-8 8 -26 22t-23 19l-6 5l-7 -5q-5 -5 -14.5 -12.5t-18 -14.5t-14.5 -12zM400 283
q15 -38 15 -79q0 -42 -15 -79.5t-41 -64.5q-27 -28 -63 -44q-37 -16 -79 -16t-78 16t-62.5 44t-41.5 65q-15 36 -15 78.5t15 79.5t41.5 65t62.5 44t78 16t79 -16q36 -16 62.5 -44t41.5 -65zM345 148q10 26 10 56t-10.5 56.5t-28.5 45.5q-19 19 -44 31q-25 11 -54 11
q-30 0 -55 -11.5t-43 -30.5q-19 -20 -29 -46q-11 -26 -11 -56t11 -56q10 -26 29 -46q18 -19 43.5 -31t54.5 -12t55 12q25 11 43.5 31t28.5 46z" />
    <glyph glyph-name="otilde" unicode="&#xf5;" horiz-adv-x="435" 
d="M82.5 475q-7.5 1 -11.5 6q-2 4 -2 10q0 12 8.5 28t18.5 24q41 33 112 -15q24 -16 40 -18t27 6q8 7 14 23v1v1q1 6 7 10q5 5 12.5 4t11.5 -7q1 -2 2 -4.5t0.5 -3.5t-1.5 -4.5t-1 -4.5q-8 -31 -25 -44q-21 -17 -50 -13q-22 2 -57 28q-10 8 -17 12t-16.5 7.5t-19 2
t-18.5 -8.5t-14 -21t-8 -16q-5 -4 -12.5 -3zM400 283q15 -38 15 -79q0 -42 -15 -79t-41 -65q-27 -28 -63 -44q-37 -16 -79 -16t-78 16t-62.5 44t-41.5 65q-15 36 -15 78.5t15 79.5t41.5 65t62.5 44t78 16t79 -16q36 -16 62.5 -44t41.5 -65zM345 148q10 26 10 56t-10.5 56.5
t-28.5 45.5q-19 19 -44 30.5t-54.5 11.5t-54.5 -11.5t-43 -30.5q-19 -20 -29 -46q-11 -26 -11 -56t11 -56q10 -26 29 -46q18 -19 43.5 -31t54.5 -12t55 12q25 11 43.5 31t28.5 46z" />
    <glyph glyph-name="odieresis" unicode="&#xf6;" horiz-adv-x="435" 
d="M294 484q-14 0 -23.5 9.5t-9.5 23.5t9.5 23.5t23.5 9.5t23.5 -9.5t9.5 -23.5t-9.5 -23.5t-23.5 -9.5zM124 484q-14 0 -23.5 9.5t-9.5 23.5t9.5 23.5t23.5 9.5t23.5 -9.5t9.5 -23.5t-9.5 -23.5t-23.5 -9.5zM400 283q15 -38 15 -79q0 -42 -15 -79t-41 -65q-27 -28 -63 -44
q-37 -16 -79 -16t-78 16t-62.5 44t-41.5 64.5t-15 79t15 79.5t41.5 65t62.5 44t78 16t79 -16q36 -16 62.5 -44t41.5 -65zM345 148q10 26 10 56t-10.5 56.5t-28.5 45.5q-19 19 -44 31q-25 11 -54 11q-30 0 -55 -11.5t-43 -30.5q-19 -20 -29 -46q-11 -26 -11 -56t11 -56
q10 -26 29 -46q18 -19 43.5 -31t54.5 -12t55 12q25 11 43.5 31t28.5 46z" />
    <glyph glyph-name="divide" unicode="&#xf7;" horiz-adv-x="498" 
d="M249 348q-12 0 -22.5 4.5t-18 12t-12.5 18t-5 22.5q0 23 17 40t41 17q11 0 22 -4.5t18.5 -12t12 -18.5t4.5 -22q0 -24 -17 -40.5t-40 -16.5zM248.5 129q23.5 0 40.5 -17t17 -40.5t-17 -40.5t-40.5 -17t-40.5 17t-17 40.5t17 40.5t40.5 17zM462 258q5 0 8.5 -4t5.5 -9
t2 -9v-13q0 -8 -4.5 -15.5t-11.5 -7.5h-426q-7 0 -11.5 7.5t-4.5 15.5v13q0 7 4.5 14.5t11.5 7.5h426z" />
    <glyph glyph-name="oslash" unicode="&#xf8;" horiz-adv-x="546" 
d="M522 430q11 -11 0 -22l-88 -88q14 -20 21 -39q16 -37 16 -79t-15.5 -79t-41.5 -65t-63 -44q-36 -16 -78 -16q-43 0 -78 16q-20 9 -41 25l-85 -86q-12 -11 -23 0l-21 21q-11 11 0 23l87 87q-13 20 -21 39q-15 37 -15 79t15 79q15 38 41 65.5t62.5 43.5t78.5 16t78 -16
q20 -8 41 -25l86 87q11 11 22 0zM146 146q3 -7 10 -18l193 195q-11 7 -21 12q-25 12 -54.5 12t-54.5 -12t-43.5 -31.5t-29.5 -45.5q-10 -26 -10 -56q0 -29 10 -56zM401 146q10 26 10 56t-10 56q-3 7 -10 19l-194 -195q11 -8 22 -13q25 -11 55 -11q29 0 54 11.5t44 30.5
q18 20 29 46z" />
    <glyph glyph-name="ugrave" unicode="&#xf9;" horiz-adv-x="424" 
d="M149 468q-9 9 -35.5 30t-38.5 35q-11 11 -5.5 25t18 18t24.5 -6q10 -9 24.5 -20.5t27.5 -22.5t23 -22t4.5 -25t-18 -18t-24.5 6zM404 375v-171v-9q-2 -36 -15 -70q-14 -37 -40 -65t-61 -44t-76 -16t-76 16t-61 44t-40 65q-13 33 -14 70l-1 9v171q1 22 23 22h16
q22 0 22 -22v-171h-1v-10q2 -24 10 -46q9 -26 27 -46t42 -31q25 -12 53 -12q29 0 53 12q25 11 42.5 31t26.5 46q9 22 10 46l1 10h-1l-1 171q0 22 22 22h16q22 0 23 -22z" />
    <glyph glyph-name="uacute" unicode="&#xfa;" horiz-adv-x="424" 
d="M223 464q-8 -8 -18.5 -7t-17 8.5t-8.5 17t6 18.5q13 14 39 35t36 30q8 8 18.5 7t17 -8.5t8.5 -17t-6 -18.5q-13 -14 -39.5 -35t-35.5 -30zM404 375v-171v-9q-2 -36 -15 -70q-14 -37 -40 -65t-61 -44t-76 -16t-76 16t-61 44t-40 65q-13 33 -14 70l-1 9v171q1 22 23 22h16
q22 0 22 -22v-171h-1v-10q2 -24 10 -46q9 -26 27 -46t42 -31q25 -12 53 -12q29 0 53 12q25 11 42.5 31t26.5 46q9 22 10 46l1 10h-1l-1 171q0 22 22 22h16q22 0 23 -22z" />
    <glyph glyph-name="ucircumflex" unicode="&#xfb;" horiz-adv-x="424" 
d="M160 464q-11 -11 -25 -6t-17.5 18t4.5 25q13 13 39.5 34.5t35.5 30.5q14 14 30 2h1q2 -1 3 -3l2 -1q7 -6 18.5 -15.5t19.5 -16t18 -16t18 -16.5q10 -11 4.5 -25.5t-18 -18t-24.5 5.5q-8 8 -26 22t-23 19l-6 6l-6 -6q-5 -4 -12 -9.5t-12.5 -10t-12 -10t-11.5 -9.5z
M404 375v-171v-9q-2 -36 -15 -70q-14 -37 -40 -65t-61 -44t-76 -16t-76 16t-61 44t-41 65q-12 33 -14 70v9v171q1 22 23 22h16q22 0 22 -22v-171h-1v-10q2 -24 10 -46q9 -26 27 -46t42 -31q25 -12 53 -12q29 0 53 12q25 11 42.5 31t26.5 46q8 22 10 46v10l-1 171q0 22 22 22
h16q22 0 23 -22z" />
    <glyph glyph-name="udieresis" unicode="&#xfc;" horiz-adv-x="424" 
d="M288 478q-14 0 -23.5 9.5t-9.5 23.5t9.5 23.5t23.5 9.5t23.5 -9.5t9.5 -23.5t-9.5 -23.5t-23.5 -9.5zM118.5 478q-14.5 0 -24 9.5t-9.5 23.5t9.5 23.5t24 9.5t23.5 -9.5t9 -23.5t-9 -23.5t-23.5 -9.5zM404 375v-171v-9q-2 -36 -15 -70q-14 -37 -40 -65t-61 -44t-76 -16
t-76 16t-61 44t-41 65q-12 33 -14 70v9v171q1 22 23 22h16q22 0 22 -22v-171h-1v-10q2 -24 10 -46q9 -26 27 -46t42 -31q25 -12 53 -12q29 0 53 12q25 11 42.5 31t26.5 46q9 22 10 46l1 10h-1l-1 171q0 22 22 22h16q22 0 23 -22z" />
    <glyph glyph-name="yacute" unicode="&#xfd;" horiz-adv-x="399" 
d="M181 460q-9 -8 -19.5 -7t-17 8.5t-8.5 17t6 18.5q13 14 39.5 35t35.5 30q8 8 18.5 7t17 -8.5t8.5 -17t-6 -18.5q-13 -14 -39 -35t-35 -30zM378 389q2 -7 -1 -15l-228 -542q-4 -7 -8 -11q-4 -5 -15 -5h-22q-8 0 -15 6q-8 8 -2 21l78 185l-144 345q-2 8 0 16q3 10 17 10h21
q9 0 14 -3t7 -8l120 -286l115 281q6 16 20 16h26q15 0 17 -10z" />
    <glyph glyph-name="thorn" unicode="&#xfe;" horiz-adv-x="420" 
d="M385 287q15 -37 15 -79t-15 -79.5t-40 -65.5q-25 -27 -59.5 -43t-73.5 -16q-56 0 -93 27q-12 9 -22 20l-17 17v-184q0 -8 -2 -13q-4 -8 -17 -8h-23q-12 0 -16 8q-2 4 -2 13v620q0 8 2 13q4 8 16 8h23q13 0 17 -9q2 -5 2 -12v-145l16 13q6 5 13 10q17 12 42.5 20.5
t60.5 8.5q39 0 74 -16q34 -16 59 -43.5t40 -64.5zM328 151q11 27 11 56.5t-10.5 56t-28.5 45.5t-41 31q-24 11 -50.5 11t-49.5 -11q-24 -12 -42 -31t-28.5 -45.5t-10.5 -56t10.5 -56t28.5 -45.5q18 -20 42 -31q23 -12 49.5 -12t50.5 12q24 11 41 30q18 20 28 46z" />
    <glyph glyph-name="ydieresis" unicode="&#xff;" horiz-adv-x="399" 
d="M273.5 491q-14.5 0 -24 9.5t-9.5 22.5q0 14 9.5 23.5t24 9.5t23.5 -9.5t9 -23.5q0 -13 -9 -22.5t-23.5 -9.5zM104 491q-14 0 -24 9.5t-10 22.5q0 14 10 23.5t24 9.5t23 -9.5t9 -23.5q0 -13 -9 -22.5t-23 -9.5zM378 389q2 -7 -1 -15l-228 -542q-4 -7 -8 -11q-4 -5 -15 -5
h-22q-8 0 -15 6q-8 8 -2 21l78 185l-144 345q-2 8 0 16q3 10 17 10h21q9 0 14 -3t7 -8l120 -286l115 281q5 16 20 16h26q15 0 17 -10z" />
    <glyph glyph-name="OE" unicode="&#x152;" horiz-adv-x="631" 
d="M595 458h-255v-165h204q6 0 10.5 -4.5t4.5 -11.5v-24q0 -6 -4.5 -11t-10.5 -5h-204v-177h255q7 0 11.5 -4.5t4.5 -10.5v-24q0 -7 -4.5 -11.5t-11.5 -4.5h-301h-1.5t-1.5 1q-1 -1 -4.5 -1h-4.5q-112 0 -187 71.5t-75 182.5t75 182.5t187 71.5h4h4q3 1 4 1h301q7 0 11.5 -5
t4.5 -11v-24q0 -7 -4.5 -11.5t-11.5 -4.5zM278 58v402q-85 -1 -139.5 -58.5t-54.5 -142.5q0 -42 14.5 -78.5t40 -63.5t61.5 -42.5t78 -16.5z" />
    <glyph glyph-name="oe" unicode="&#x153;" horiz-adv-x="687" 
d="M667 210q0 -32 -38 -32h-273l3 -11q4 -21 14.5 -39.5t26 -33t34.5 -23.5l3 -1q27 -10 56 -10q11 0 24 2q14 3 28 8q28 11 51 32q8 8 17 4q5 -2 8 -5l0.5 -0.5l0.5 -0.5l13 -18q2 -3 4 -8q1 -8 -7 -16q-28 -29 -66 -43q-39 -16 -75 -15q-33 1 -64 12v1l-6 2q-40 14 -70 44
q-26 -22 -54 -33q-39 -16 -75 -15q-39 1 -75 16q-37 16 -65 43t-45 64t-17 81q0 42 16 79q16 38 44 65t65.5 42.5t80.5 15.5q19 0 40 -6q19 -4 38 -13q17 -9 33 -19q15 -9 27 -20q23 21 46 32q34 16 72.5 16t72.5 -16q51 -24 81.5 -74t30.5 -107zM277 82q20 8 42 25
q-1 0 -4.5 7t-4.5 10q-18 48 -13.5 98.5t30.5 92.5q-20 17 -45 29.5t-57 12.5q-30 0 -57 -10q-26 -11 -46 -29q-20 -19 -32 -45t-12 -58q0 -33 12 -60q12 -26 32 -45q20 -18 46 -29q28 -10 57 -10q24 0 52 11zM359 238h247l-4 12q-12 44 -46.5 71t-77.5 26t-77 -33
q-27 -26 -38 -64z" />
    <glyph glyph-name="Scaron" unicode="&#x160;" horiz-adv-x="417" 
d="M202 587q-9 8 -35.5 29.5t-39.5 34.5q-10 11 -4.5 25.5t18 18.5t24.5 -6q8 -8 25.5 -21.5t22.5 -18.5l6 -5l6 5q5 5 23 19t26 22q11 11 25 6t18 -18t-5 -25q-10 -10 -21.5 -20.5t-28.5 -24.5t-23 -19l-3 -2l-3 -3h-1q-16 -11 -30 3zM95 388q0 -27 22.5 -44.5t56 -26
t73 -21t73 -27t55.5 -45.5t22 -75q0 -51 -27.5 -86t-68.5 -49t-91 -14q-115 0 -185 70q-10 10 -2 21l18 22q4 6 11 6.5t12 -4.5q63 -60 148 -60q48 0 84.5 21.5t36.5 67.5q0 30 -22.5 50.5t-56 30t-72.5 21.5t-72.5 25t-56 42t-22.5 71q0 67 52.5 104t121.5 37
q105 0 170 -60q11 -10 2 -21l-18 -22q-4 -5 -10.5 -5.5t-11.5 4.5q-55 49 -136 49q-42 0 -74 -21t-32 -61z" />
    <glyph glyph-name="scaron" unicode="&#x161;" horiz-adv-x="314" 
d="M131 461q-10 9 -36 30.5t-39 34.5q-10 11 -4.5 25.5t18 18t24.5 -5.5q4 -4 9 -8l10 -8t9.5 -8t10 -8t8.5 -8l7 -5l6 5q5 5 23 19t26 22q11 11 25 6t17.5 -18t-4.5 -25q-10 -11 -21.5 -21t-29 -24t-23.5 -19l-2 -2q-1 -2 -3 -3h-1q-16 -12 -30 2zM156 243
q139 -35 138 -125q0 -37 -20.5 -64.5t-52 -40t-67.5 -12.5q-41 0 -73.5 16t-55.5 49q-13 18 5 31l13 9q20 16 36 -8l12 -17l1 4q17 -15 42 -22q24 -7 51.5 1t41.5 28q7 11 7 24.5t-7 23.5q-20 28 -80 43q-48 11 -82 40t-34 73q0 53 35.5 83t89.5 30q7 0 13 -1q17 0 33 -5
l1 -1q5 -1 8 -2l8 -4q14 -6 27 -16q17 -13 5 -30l-9 -12q-14 -21 -37 -3q-16 11 -34 14v1h-10l-2 0.5t-3 0.5q-27 0 -46 -14t-19 -41q0 -36 65 -53z" />
    <glyph glyph-name="Ydieresis" unicode="&#x178;" horiz-adv-x="475" 
d="M324 592q-14 0 -23.5 9.5t-9.5 22.5q0 15 9.5 24.5t23.5 9.5t23.5 -10t9.5 -24q0 -13 -9.5 -22.5t-23.5 -9.5zM154 592q-14 0 -23.5 9.5t-9.5 22.5q0 15 9.5 24.5t23.5 9.5t23.5 -10t9.5 -24q0 -13 -9.5 -22.5t-23.5 -9.5zM452.5 498q4.5 -8 -0.5 -16l-183 -269v-200
q0 -6 -4.5 -10.5t-11.5 -4.5h-31q-6 0 -10.5 4.5t-4.5 10.5v200l-184 269q-6 8 -1.5 16t14.5 8h34q9 0 13 -7l154 -230l154 230q5 7 13 7h35q9 0 13.5 -8z" />
    <glyph glyph-name="Zcaron" unicode="&#x17d;" horiz-adv-x="474" 
d="M221 587q-9 8 -35 29.5t-39 34.5q-10 11 -5 25.5t17.5 18.5t25.5 -6q4 -5 10.5 -10.5t12.5 -9.5t12.5 -10t11.5 -10l6 -5l7 5q5 5 22.5 19t25.5 22q11 11 25 6t18 -18t-5 -25q-9 -10 -21 -20.5t-29 -24.5t-23 -19l-2 -2q-2 -1 -3 -3h-1q-17 -11 -31 3zM452 499
q4 -9 -1 -17l-325 -422h259h3h37q18 0 18 -19v-23q0 -3 -0.5 -5.5t-1.5 -4.5t-3 -3.5t-4 -2.5t-4.5 -1.5t-5.5 -0.5l-388 -1q-10 0 -14.5 8.5t1.5 16.5l324 423l-253 -1l-2 1h-13q-24 0 -24 17v26q0 3 2 6v1q2 1 2 2l1 1l1 2q2 1 5 2l3 1l3 1h2h3l361 1h1h1l4 -1q6 -3 8 -7z
" />
    <glyph glyph-name="zcaron" unicode="&#x17e;" horiz-adv-x="368" 
d="M157 463q-10 9 -36 30.5t-39 34.5q-10 11 -4.5 25.5t18 18t24.5 -5.5q8 -8 25.5 -22t21.5 -18l7 -5l6 5q5 5 23 19t26 22q11 11 25 6t17.5 -18t-4.5 -25q-10 -11 -21.5 -21t-29 -24t-23.5 -19l-2 -2q-1 -2 -3 -3h-1q-16 -12 -30 2zM330 69q18 0 18 -19v-23q0 -18 -19 -18
h-282q-11 0 -17 3q-10 5 -10 18v17v7q1 5 5 10v1l236 275h-221q-19 0 -19 17v26q0 17 16 17h289q9 0 15 -5q7 -6 7 -16v-19q0 -12 -8 -20l-232 -271h222z" />
    <glyph glyph-name="quoteright" unicode="&#x2019;" horiz-adv-x="174" 
d="M47 445q31 28 42 60l4 13h-13q-22 1 -36 16.5t-14 38.5q0 15 7.5 28.5t20.5 21t29 7.5q31 0 48.5 -23.5t17.5 -56.5q0 -40 -19 -78t-51 -66q-15 -14 -31 0l-4 3q-8 7 -8.5 18t7.5 18z" />
    <glyph glyph-name="Euro" unicode="&#x20ac;" horiz-adv-x="571" 
d="M544 107q6 -4 7 -10.5t-3 -11.5q-71 -85 -181 -85q-83 0 -149 44t-94 122l-3 7h-90q-5 0 -8 8.5t-3 14.5v13q0 6 3 14t8 8h78l-1 12q-1 13 -1 19q0 3 0.5 8.5l0.5 5.5v12h-77q-5 0 -8 8t-3 15v13q0 6 3 14t8 8h89l2 8q27 79 93.5 124.5t151.5 45.5q111 0 181 -85
q4 -5 2.5 -12t-6.5 -10l-25 -14q-11 -6 -18 4q-25 30 -60 47t-73.5 17t-72 -13t-60 -37.5t-43.5 -58.5l-7 -15h195q6 0 9 -8.5t3 -14.5v-13q0 -6 -3 -14.5t-9 -8.5h-209l-1 -10q0 -2 -0.5 -7.5t-0.5 -8.5q0 -1 2 -21l1 -9h208q6 0 9 -8.5t3 -14.5v-13q0 -6 -3 -14.5t-9 -8.5
h-194l9 -16q26 -49 71 -76.5t101 -27.5q39 0 74.5 17t59.5 47q7 9 18 3z" />
    </font>
</defs>
</svg>
